{
  "accessors": [
    {
      "bufferView": 2,
      "componentType": 5126,
      "count": 1396,
      "max": [
        132.3280029296875,
        91.41110229492188,
        86.5145034790039
      ],
      "min": [
        114.08100128173828,
        72.77269744873047,
        59.4556999206543
      ],
      "type": "VEC3"
    },
    {
      "bufferView": 2,
      "byteOffset": 16752,
      "componentType": 5126,
      "count": 1396,
      "max": [
        0.9985756278038025,
        0.9999655485153198,
        0.9950096607208252
      ],
      "min": [
        -0.9998482465744019,
        -0.9997148513793945,
        -0.9982338547706604
      ],
      "type": "VEC3"
    },
    {
      "bufferView": 1,
      "componentType": 5126,
      "count": 1396,
      "max": [
        14.228799819946289,
        27.21619987487793
      ],
      "min": [
        -14.205300331115723,
        -12.491299629211426
      ],
      "type": "VEC2"
    },
    {
      "bufferView": 0,
      "componentType": 5125,
      "count": 2016,
      "type": "SCALAR"
    },
    {
      "bufferView": 2,
      "byteOffset": 33504,
      "componentType": 5126,
      "count": 1396,
      "max": [
        117.9749984741211,
        89.71320343017578,
        74.15840148925781
      ],
      "min": [
        99.20770263671875,
        70.67160034179688,
        47.737998962402344
      ],
      "type": "VEC3"
    },
    {
      "bufferView": 2,
      "byteOffset": 50256,
      "componentType": 5126,
      "count": 1396,
      "max": [
        0.998931348323822,
        0.9952382445335388,
        0.9969341158866882
      ],
      "min": [
        -0.9957232475280762,
        -0.9966086149215698,
        -0.9939205050468445
      ],
      "type": "VEC3"
    },
    {
      "bufferView": 1,
      "byteOffset": 11168,
      "componentType": 5126,
      "count": 1396,
      "max": [
        14.228799819946289,
        27.21619987487793
      ],
      "min": [
        -14.205300331115723,
        -12.491299629211426
      ],
      "type": "VEC2"
    },
    {
      "bufferView": 0,
      "byteOffset": 8064,
      "componentType": 5125,
      "count": 2016,
      "type": "SCALAR"
    },
    {
      "bufferView": 2,
      "byteOffset": 67008,
      "componentType": 5126,
      "count": 1396,
      "max": [
        145.3489990234375,
        104.98300170898438,
        77.45590209960938
      ],
      "min": [
        126.74099731445313,
        86.35700225830078,
        50.52399826049805
      ],
      "type": "VEC3"
    },
    {
      "bufferView": 2,
      "byteOffset": 83760,
      "componentType": 5126,
      "count": 1396,
      "max": [
        0.9986634850502014,
        0.9996441006660461,
        0.9988998770713806
      ],
      "min": [
        -0.9999333620071411,
        -0.9994272589683533,
        -0.9998607635498047
      ],
      "type": "VEC3"
    },
    {
      "bufferView": 1,
      "byteOffset": 22336,
      "componentType": 5126,
      "count": 1396,
      "max": [
        14.228799819946289,
        27.21619987487793
      ],
      "min": [
        -14.205300331115723,
        -12.491299629211426
      ],
      "type": "VEC2"
    },
    {
      "bufferView": 0,
      "byteOffset": 16128,
      "componentType": 5125,
      "count": 2016,
      "type": "SCALAR"
    },
    {
      "bufferView": 2,
      "byteOffset": 100512,
      "componentType": 5126,
      "count": 1396,
      "max": [
        127.61399841308594,
        103.27100372314453,
        63.15480041503906
      ],
      "min": [
        109.21099853515625,
        85.13610076904297,
        36.02619934082031
      ],
      "type": "VEC3"
    },
    {
      "bufferView": 2,
      "byteOffset": 117264,
      "componentType": 5126,
      "count": 1396,
      "max": [
        0.9999826550483704,
        0.9987607598304749,
        0.9928730130195618
      ],
      "min": [
        -0.9980660080909729,
        -0.9970857501029968,
        -0.9928730130195618
      ],
      "type": "VEC3"
    },
    {
      "bufferView": 1,
      "byteOffset": 33504,
      "componentType": 5126,
      "count": 1396,
      "max": [
        14.228799819946289,
        27.21619987487793
      ],
      "min": [
        -14.205300331115723,
        -12.491299629211426
      ],
      "type": "VEC2"
    },
    {
      "bufferView": 0,
      "byteOffset": 24192,
      "componentType": 5125,
      "count": 2016,
      "type": "SCALAR"
    },
    {
      "bufferView": 2,
      "byteOffset": 134016,
      "componentType": 5126,
      "count": 1396,
      "max": [
        135.23199462890625,
        107.46499633789063,
        100.41699981689453
      ],
      "min": [
        116.93099975585938,
        89.37349700927734,
        73.22940063476563
      ],
      "type": "VEC3"
    },
    {
      "bufferView": 2,
      "byteOffset": 150768,
      "componentType": 5126,
      "count": 1396,
      "max": [
        0.9997612237930298,
        0.9976502656936646,
        0.9953962564468384
      ],
      "min": [
        -0.9987680912017822,
        -0.9989182353019714,
        -0.9953962564468384
      ],
      "type": "VEC3"
    },
    {
      "bufferView": 1,
      "byteOffset": 44672,
      "componentType": 5126,
      "count": 1396,
      "max": [
        14.228799819946289,
        27.21619987487793
      ],
      "min": [
        -14.205300331115723,
        -12.491299629211426
      ],
      "type": "VEC2"
    },
    {
      "bufferView": 0,
      "byteOffset": 32256,
      "componentType": 5125,
      "count": 2016,
      "type": "SCALAR"
    },
    {
      "bufferView": 2,
      "byteOffset": 167520,
      "componentType": 5126,
      "count": 122,
      "max": [
        114.13300323486328,
        93.9303970336914,
        62.32120132446289
      ],
      "min": [
        108.19400024414063,
        91.9457015991211,
        -7.105429898699844e-15
      ],
      "type": "VEC3"
    },
    {
      "bufferView": 2,
      "byteOffset": 168984,
      "componentType": 5126,
      "count": 122,
      "max": [
        0.18116594851016998,
        -0.42329615354537964,
        0.9035568833351135
      ],
      "min": [
        -0.4029838442802429,
        -0.9999826550483704,
        -0.9059762954711914
      ],
      "type": "VEC3"
    },
    {
      "bufferView": 1,
      "byteOffset": 55840,
      "componentType": 5126,
      "count": 122,
      "max": [
        2.5566799640655518,
        40.94490051269531
      ],
      "min": [
        -1.0456600189208984,
        14.466899871826172
      ],
      "type": "VEC2"
    },
    {
      "bufferView": 0,
      "byteOffset": 40320,
      "componentType": 5125,
      "count": 126,
      "type": "SCALAR"
    },
    {
      "bufferView": 2,
      "byteOffset": 170448,
      "componentType": 5126,
      "count": 1396,
      "max": [
        109.26499938964844,
        110.37300109863281,
        73.39219665527344
      ],
      "min": [
        89.32489776611328,
        91.8572006225586,
        47.38990020751953
      ],
      "type": "VEC3"
    },
    {
      "bufferView": 2,
      "byteOffset": 187200,
      "componentType": 5126,
      "count": 1396,
      "max": [
        0.9972092509269714,
        0.99659663438797,
        0.9969216585159302
      ],
      "min": [
        -0.994401752948761,
        -0.9946536421775818,
        -0.9995717406272888
      ],
      "type": "VEC3"
    },
    {
      "bufferView": 1,
      "byteOffset": 56816,
      "componentType": 5126,
      "count": 1396,
      "max": [
        14.228799819946289,
        27.21619987487793
      ],
      "min": [
        -14.205300331115723,
        -12.491299629211426
      ],
      "type": "VEC2"
    },
    {
      "bufferView": 0,
      "byteOffset": 40824,
      "componentType": 5125,
      "count": 2016,
      "type": "SCALAR"
    },
    {
      "bufferView": 2,
      "byteOffset": 203952,
      "componentType": 5126,
      "count": 1396,
      "max": [
        142.96600341796875,
        122.67400360107422,
        83.08200073242188
      ],
      "min": [
        124.74199676513672,
        103.2040023803711,
        56.582698822021484
      ],
      "type": "VEC3"
    },
    {
      "bufferView": 2,
      "byteOffset": 220704,
      "componentType": 5126,
      "count": 1396,
      "max": [
        0.9977826476097107,
        0.9999637603759766,
        0.9978652596473694
      ],
      "min": [
        -0.9995208978652954,
        -0.9994452595710754,
        -0.9951004981994629
      ],
      "type": "VEC3"
    },
    {
      "bufferView": 1,
      "byteOffset": 67984,
      "componentType": 5126,
      "count": 1396,
      "max": [
        14.228799819946289,
        27.21619987487793
      ],
      "min": [
        -14.205300331115723,
        -12.491299629211426
      ],
      "type": "VEC2"
    },
    {
      "bufferView": 0,
      "byteOffset": 48888,
      "componentType": 5125,
      "count": 2016,
      "type": "SCALAR"
    },
    {
      "bufferView": 2,
      "byteOffset": 237456,
      "componentType": 5126,
      "count": 362,
      "max": [
        119.22699737548828,
        102.9739990234375,
        89.44270324707031
      ],
      "min": [
        101.13500213623047,
        84.88200378417969,
        62.12910079956055
      ],
      "type": "VEC3"
    },
    {
      "bufferView": 2,
      "byteOffset": 241800,
      "componentType": 5126,
      "count": 362,
      "max": [
        0.9988912343978882,
        0.997675359249115,
        1.0
      ],
      "min": [
        -0.9988912343978882,
        -0.9988918900489807,
        -1.0
      ],
      "type": "VEC3"
    },
    {
      "bufferView": 1,
      "byteOffset": 79152,
      "componentType": 5126,
      "count": 362,
      "max": [
        2.1217598915100098,
        1.9479299783706665
      ],
      "min": [
        -1.0565600395202637,
        -0.9610549807548523
      ],
      "type": "VEC2"
    },
    {
      "bufferView": 0,
      "byteOffset": 56952,
      "componentType": 5125,
      "count": 2016,
      "type": "SCALAR"
    },
    {
      "bufferView": 2,
      "byteOffset": 246144,
      "componentType": 5126,
      "count": 388,
      "max": [
        126.2490005493164,
        117.71299743652344,
        78.23429870605469
      ],
      "min": [
        108.01399993896484,
        99.04609680175781,
        51.18870162963867
      ],
      "type": "VEC3"
    },
    {
      "bufferView": 2,
      "byteOffset": 250800,
      "componentType": 5126,
      "count": 388,
      "max": [
        0.9996972680091858,
        0.9984102249145508,
        0.9959338903427124
      ],
      "min": [
        -0.9981908798217773,
        -0.9993212223052979,
        -0.9987764954566956
      ],
      "type": "VEC3"
    },
    {
      "bufferView": 1,
      "byteOffset": 82048,
      "componentType": 5126,
      "count": 388,
      "max": [
        2.1692800521850586,
        1.9811899662017822
      ],
      "min": [
        -1.0839699506759644,
        -0.9888560175895691
      ],
      "type": "VEC2"
    },
    {
      "bufferView": 0,
      "byteOffset": 65016,
      "componentType": 5125,
      "count": 2016,
      "type": "SCALAR"
    },
    {
      "bufferView": 2,
      "byteOffset": 255456,
      "componentType": 5126,
      "count": 194,
      "max": [
        118.55999755859375,
        105.42400360107422,
        51.51250076293945
      ],
      "min": [
        105.79299926757813,
        91.61959838867188,
        1.285040020942688
      ],
      "type": "VEC3"
    },
    {
      "bufferView": 2,
      "byteOffset": 257784,
      "componentType": 5126,
      "count": 194,
      "max": [
        0.45381593704223633,
        0.6990039348602295,
        0.9895504713058472
      ],
      "min": [
        -0.6164752244949341,
        -0.9992836713790894,
        -0.9866583347320557
      ],
      "type": "VEC3"
    },
    {
      "bufferView": 1,
      "byteOffset": 85152,
      "componentType": 5126,
      "count": 194,
      "max": [
        2.145699977874756,
        40.94490051269531
      ],
      "min": [
        -5.384900093078613,
        10.819899559020996
      ],
      "type": "VEC2"
    },
    {
      "bufferView": 0,
      "byteOffset": 73080,
      "componentType": 5125,
      "count": 198,
      "type": "SCALAR"
    },
    {
      "bufferView": 2,
      "byteOffset": 260112,
      "componentType": 5126,
      "count": 236,
      "max": [
        133.33099365234375,
        107.80899810791016,
        59.770599365234375
      ],
      "min": [
        112.63600158691406,
        84.89600372314453,
        0.3063580095767975
      ],
      "type": "VEC3"
    },
    {
      "bufferView": 2,
      "byteOffset": 262944,
      "componentType": 5126,
      "count": 236,
      "max": [
        0.8561221361160278,
        0.11237303167581558,
        0.9998307824134827
      ],
      "min": [
        -0.49045807123184204,
        -0.990937352180481,
        -0.9882116317749023
      ],
      "type": "VEC3"
    },
    {
      "bufferView": 1,
      "byteOffset": 86704,
      "componentType": 5126,
      "count": 236,
      "max": [
        1.191249966621399,
        40.94490051269531
      ],
      "min": [
        -10.808699607849121,
        8.689990043640137
      ],
      "type": "VEC2"
    },
    {
      "bufferView": 0,
      "byteOffset": 73872,
      "componentType": 5125,
      "count": 240,
      "type": "SCALAR"
    },
    {
      "bufferView": 2,
      "byteOffset": 265776,
      "componentType": 5126,
      "count": 164,
      "max": [
        133.78500366210938,
        99.30010223388672,
        50.952701568603516
      ],
      "min": [
        112.21499633789063,
        91.73870086669922,
        1.8708200454711914
      ],
      "type": "VEC3"
    },
    {
      "bufferView": 2,
      "byteOffset": 267744,
      "componentType": 5126,
      "count": 164,
      "max": [
        0.4332081973552704,
        -0.2511380910873413,
        0.952111005783081
      ],
      "min": [
        -0.3833831548690796,
        -0.9981859922409058,
        -0.5288211703300476
      ],
      "type": "VEC3"
    },
    {
      "bufferView": 1,
      "byteOffset": 88592,
      "componentType": 5126,
      "count": 164,
      "max": [
        1.2450300455093384,
        40.94490051269531
      ],
      "min": [
        -11.155200004577637,
        2.8525500297546387
      ],
      "type": "VEC2"
    },
    {
      "bufferView": 0,
      "byteOffset": 74832,
      "componentType": 5125,
      "count": 168,
      "type": "SCALAR"
    },
    {
      "bufferView": 2,
      "byteOffset": 269712,
      "componentType": 5126,
      "count": 2827,
      "max": [
        124.90699768066406,
        98.41329956054688,
        73.4614028930664
      ],
      "min": [
        105.2239990234375,
        84.481201171875,
        3.783910036087036
      ],
      "type": "VEC3"
    },
    {
      "bufferView": 2,
      "byteOffset": 303636,
      "componentType": 5126,
      "count": 2827,
      "max": [
        0.9970967769622803,
        0.9993048906326294,
        0.9875867366790771
      ],
      "min": [
        -0.9994240999221802,
        -0.9999826550483704,
        -0.9888537526130676
      ],
      "type": "VEC3"
    },
    {
      "bufferView": 1,
      "byteOffset": 89904,
      "componentType": 5126,
      "count": 2827,
      "max": [
        6.9476799964904785,
        40.94490051269531
      ],
      "min": [
        -5.2494401931762695,
        -2.3720500469207764
      ],
      "type": "VEC2"
    },
    {
      "bufferView": 0,
      "byteOffset": 75504,
      "componentType": 5125,
      "count": 2928,
      "type": "SCALAR"
    }
  ],
  "asset": {
    "extras": {
      "author": "eventdesignws (https://sketchfab.com/eventdesignws)",
      "license": "CC-BY-4.0 (http://creativecommons.org/licenses/by/4.0/)",
      "source": "https://sketchfab.com/3d-models/ballon-6adb81e93e694647a13dc60b223b5bdf",
      "title": "ballon"
    },
    "generator": "Sketchfab-16.68.0",
    "version": "2.0"
  },
  "bufferViews": [
    {
      "buffer": 0,
      "byteLength": 87216,
      "name": "floatBufferViews",
      "target": 34963
    },
    {
      "buffer": 0,
      "byteLength": 112520,
      "byteOffset": 87216,
      "byteStride": 8,
      "name": "floatBufferViews",
      "target": 34962
    },
    {
      "buffer": 0,
      "byteLength": 337560,
      "byteOffset": 199736,
      "byteStride": 12,
      "name": "floatBufferViews",
      "target": 34962
    }
  ],
  "buffers": [
    {
      "byteLength": 537296,
      "uri": "scene.bin"
    }
  ],
  "extensionsUsed": [
    "KHR_materials_clearcoat"
  ],
  "images": [
    {
      "uri": "textures/Vermelho_bolinhas_baseColor.jpeg"
    },
    {
      "uri": "textures/verde_bolinhas_baseColor.jpeg"
    }
  ],
  "materials": [
    {
      "doubleSided": true,
      "extensions": {
        "KHR_materials_clearcoat": {
          "clearcoatFactor": 1.0,
          "clearcoatRoughnessFactor": 0.04
        }
      },
      "name": "M_0016_Tomato",
      "pbrMetallicRoughness": {
        "baseColorFactor": [
          0.8913181109666124,
          0.10906024920154071,
          0.03534625914203489,
          1.0
        ],
        "metallicFactor": 0.0
      }
    },
    {
      "doubleSided": true,
      "extensions": {
        "KHR_materials_clearcoat": {
          "clearcoatFactor": 1.0,
          "clearcoatRoughnessFactor": 0.04
        }
      },
      "name": "M_0020_Red",
      "pbrMetallicRoughness": {
        "baseColorFactor": [
          1.0,
          0.0,
          0.0,
          1.0
        ],
        "metallicFactor": 0.0
      }
    },
    {
      "doubleSided": true,
      "extensions": {
        "KHR_materials_clearcoat": {
          "clearcoatFactor": 1.0,
          "clearcoatRoughnessFactor": 0.04
        }
      },
      "name": "M_0022_Maroon",
      "pbrMetallicRoughness": {
        "baseColorFactor": [
          0.501961,
          0.0,
          0.0,
          1.0
        ],
        "metallicFactor": 0.0
      }
    },
    {
      "doubleSided": true,
      "extensions": {
        "KHR_materials_clearcoat": {
          "clearcoatFactor": 1.0,
          "clearcoatRoughnessFactor": 0.04
        }
      },
      "name": "M_0056_Yellow",
      "pbrMetallicRoughness": {
        "baseColorFactor": [
          1.0,
          1.0,
          0.0,
          1.0
        ],
        "metallicFactor": 0.0
      }
    },
    {
      "doubleSided": true,
      "extensions": {
        "KHR_materials_clearcoat": {
          "clearcoatFactor": 1.0,
          "clearcoatRoughnessFactor": 0.04
        }
      },
      "name": "M_0065_Lime",
      "pbrMetallicRoughness": {
        "baseColorFactor": [
          0.0,
          1.0,
          0.0,
          1.0
        ],
        "metallicFactor": 0.0
      }
    },
    {
      "doubleSided": true,
      "extensions": {
        "KHR_materials_clearcoat": {
          "clearcoatFactor": 1.0,
          "clearcoatRoughnessFactor": 0.04
        }
      },
      "name": "M_0083_DarkTurquoise",
      "pbrMetallicRoughness": {
        "baseColorFactor": [
          0.0,
          0.807843,
          0.8196080000000001,
          1.0
        ],
        "metallicFactor": 0.0
      }
    },
    {
      "doubleSided": true,
      "extensions": {
        "KHR_materials_clearcoat": {
          "clearcoatFactor": 1.0,
          "clearcoatRoughnessFactor": 0.04
        }
      },
      "name": "M_0097_DeepSkyBlue",
      "pbrMetallicRoughness": {
        "baseColorFactor": [
          0.0,
          0.7490199999999989,
          1.0,
          1.0
        ],
        "metallicFactor": 0.0
      }
    },
    {
      "doubleSided": true,
      "extensions": {
        "KHR_materials_clearcoat": {
          "clearcoatFactor": 1.0,
          "clearcoatRoughnessFactor": 0.04
        }
      },
      "name": "M_0101_CornflowerBlue",
      "pbrMetallicRoughness": {
        "baseColorFactor": [
          0.3921569999999998,
          0.5843139999999998,
          0.929412,
          1.0
        ],
        "metallicFactor": 0.0
      }
    },
    {
      "doubleSided": true,
      "extensions": {
        "KHR_materials_clearcoat": {
          "clearcoatFactor": 1.0,
          "clearcoatRoughnessFactor": 0.04
        }
      },
      "name": "M_0103_Blue",
      "pbrMetallicRoughness": {
        "baseColorFactor": [
          0.0,
          0.0,
          1.0,
          1.0
        ],
        "metallicFactor": 0.0
      }
    },
    {
      "doubleSided": true,
      "extensions": {
        "KHR_materials_clearcoat": {
          "clearcoatFactor": 1.0,
          "clearcoatRoughnessFactor": 0.04
        }
      },
      "name": "M_0127_Magenta",
      "pbrMetallicRoughness": {
        "baseColorFactor": [
          1.0,
          0.0,
          1.0,
          1.0
        ],
        "metallicFactor": 0.0
      }
    },
    {
      "doubleSided": true,
      "extensions": {
        "KHR_materials_clearcoat": {
          "clearcoatFactor": 1.0,
          "clearcoatRoughnessFactor": 0.04
        }
      },
      "name": "M_150_75_51",
      "pbrMetallicRoughness": {
        "baseColorFactor": [
          0.5882349999999997,
          0.294118,
          0.2,
          1.0
        ],
        "metallicFactor": 0.0
      }
    },
    {
      "doubleSided": true,
      "extensions": {
        "KHR_materials_clearcoat": {
          "clearcoatFactor": 1.0,
          "clearcoatRoughnessFactor": 0.04
        }
      },
      "name": "M_255_255_102",
      "pbrMetallicRoughness": {
        "baseColorFactor": [
          0.5811290114691935,
          0.5811290114691935,
          0.003596447317583703,
          1.0
        ],
        "metallicFactor": 0.0
      }
    },
    {
      "doubleSided": true,
      "extensions": {
        "KHR_materials_clearcoat": {
          "clearcoatFactor": 1.0,
          "clearcoatRoughnessFactor": 0.04
        }
      },
      "name": "Vermelho_bolinhas",
      "pbrMetallicRoughness": {
        "baseColorTexture": {
          "index": 0
        },
        "metallicFactor": 0.0
      }
    },
    {
      "doubleSided": true,
      "extensions": {
        "KHR_materials_clearcoat": {
          "clearcoatFactor": 1.0,
          "clearcoatRoughnessFactor": 0.04
        }
      },
      "name": "verde_bolinhas",
      "pbrMetallicRoughness": {
        "baseColorFactor": [
          0.8620637116306771,
          0.8620637116306771,
          0.8620637116306771,
          1.0
        ],
        "baseColorTexture": {
          "index": 1
        },
        "metallicFactor": 0.3701499240767032
      }
    }
  ],
  "meshes": [
    {
      "name": "Object_0",
      "primitives": [
        {
          "attributes": {
            "NORMAL": 1,
            "POSITION": 0,
            "TEXCOORD_0": 2
          },
          "indices": 3,
          "material": 0,
          "mode": 4
        }
      ]
    },
    {
      "name": "Object_1",
      "primitives": [
        {
          "attributes": {
            "NORMAL": 5,
            "POSITION": 4,
            "TEXCOORD_0": 6
          },
          "indices": 7,
          "material": 1,
          "mode": 4
        }
      ]
    },
    {
      "name": "Object_2",
      "primitives": [
        {
          "attributes": {
            "NORMAL": 9,
            "POSITION": 8,
            "TEXCOORD_0": 10
          },
          "indices": 11,
          "material": 3,
          "mode": 4
        }
      ]
    },
    {
      "name": "Object_3",
      "primitives": [
        {
          "attributes": {
            "NORMAL": 13,
            "POSITION": 12,
            "TEXCOORD_0": 14
          },
          "indices": 15,
          "material": 4,
          "mode": 4
        }
      ]
    },
    {
      "name": "Object_4",
      "primitives": [
        {
          "attributes": {
            "NORMAL": 17,
            "POSITION": 16,
            "TEXCOORD_0": 18
          },
          "indices": 19,
          "material": 6,
          "mode": 4
        }
      ]
    },
    {
      "name": "Object_5",
      "primitives": [
        {
          "attributes": {
            "NORMAL": 21,
            "POSITION": 20,
            "TEXCOORD_0": 22
          },
          "indices": 23,
          "material": 7,
          "mode": 4
        }
      ]
    },
    {
      "name": "Object_6",
      "primitives": [
        {
          "attributes": {
            "NORMAL": 25,
            "POSITION": 24,
            "TEXCOORD_0": 26
          },
          "indices": 27,
          "material": 8,
          "mode": 4
        }
      ]
    },
    {
      "name": "Object_7",
      "primitives": [
        {
          "attributes": {
            "NORMAL": 29,
            "POSITION": 28,
            "TEXCOORD_0": 30
          },
          "indices": 31,
          "material": 9,
          "mode": 4
        }
      ]
    },
    {
      "name": "Object_8",
      "primitives": [
        {
          "attributes": {
            "NORMAL": 33,
            "POSITION": 32,
            "TEXCOORD_0": 34
          },
          "indices": 35,
          "material": 12,
          "mode": 4
        }
      ]
    },
    {
      "name": "Object_9",
      "primitives": [
        {
          "attributes": {
            "NORMAL": 37,
            "POSITION": 36,
            "TEXCOORD_0": 38
          },
          "indices": 39,
          "material": 13,
          "mode": 4
        }
      ]
    },
    {
      "name": "Object_10",
      "primitives": [
        {
          "attributes": {
            "NORMAL": 41,
            "POSITION": 40,
            "TEXCOORD_0": 42
          },
          "indices": 43,
          "material": 2,
          "mode": 4
        }
      ]
    },
    {
      "name": "Object_11",
      "primitives": [
        {
          "attributes": {
            "NORMAL": 45,
            "POSITION": 44,
            "TEXCOORD_0": 46
          },
          "indices": 47,
          "material": 5,
          "mode": 4
        }
      ]
    },
    {
      "name": "Object_12",
      "primitives": [
        {
          "attributes": {
            "NORMAL": 49,
            "POSITION": 48,
            "TEXCOORD_0": 50
          },
          "indices": 51,
          "material": 10,
          "mode": 4
        }
      ]
    },
    {
      "name": "Object_13",
      "primitives": [
        {
          "attributes": {
            "NORMAL": 53,
            "POSITION": 52,
            "TEXCOORD_0": 54
          },
          "indices": 55,
          "material": 11,
          "mode": 4
        }
      ]
    }
  ],
  "nodes": [
    {
      "children": [
        1
      ],
      "matrix": [
        0.009999999776482582,
        0.0,
        0.0,
        0.0,
        0.0,
        2.2204459996194763e-18,
        -0.009999999776482582,
        0.0,
        0.0,
        0.009999999776482582,
        2.2204459996194763e-18,
        0.0,
        0.0,
        0.0,
        0.0,
        1.0
      ],
      "name": "Sketchfab_model"
    },
    {
      "children": [
        2,
        3,
        4,
        5,
        6,
        7,
        8,
        9,
        10,
        11,
        12,
        13,
        14,
        15
      ],
      "name": "ballon.obj.cleaner.materialmerger.gles"
    },
    {
      "mesh": 0,
      "name": "Object_2"
    },
    {
      "mesh": 1,
      "name": "Object_3"
    },
    {
      "mesh": 2,
      "name": "Object_4"
    },
    {
      "mesh": 3,
      "name": "Object_5"
    },
    {
      "mesh": 4,
      "name": "Object_6"
    },
    {
      "mesh": 5,
      "name": "Object_7"
    },
    {
      "mesh": 6,
      "name": "Object_8"
    },
    {
      "mesh": 7,
      "name": "Object_9"
    },
    {
      "mesh": 8,
      "name": "Object_10"
    },
    {
      "mesh": 9,
      "name": "Object_11"
    },
    {
      "mesh": 10,
      "name": "Object_12"
    },
    {
      "mesh": 11,
      "name": "Object_13"
    },
    {
      "mesh": 12,
      "name": "Object_14"
    },
    {
      "mesh": 13,
      "name": "Object_15"
    }
  ],
  "samplers": [
    {
      "magFilter": 9729,
      "minFilter": 9987,
      "wrapS": 10497,
      "wrapT": 10497
    }
  ],
  "scene": 0,
  "scenes": [
    {
      "name": "Sketchfab_Scene",
      "nodes": [
        0
      ]
    }
  ],
  "textures": [
    {
      "sampler": 0,
      "source": 0
    },
    {
      "sampler": 0,
      "source": 1
    }
  ]
}
