{
	"asset":{
		"generator":"Khronos glTF Blender I/O v4.0.44",
		"version":"2.0"
	},
	"extensionsUsed":[
		"KHR_texture_transform",
		"KHR_materials_specular",
		"KHR_materials_ior",
		"KHR_materials_transmission"
	],
	"extensionsRequired":[
		"KHR_texture_transform"
	],
	"scene":0,
	"scenes":[
		{
			"name":"Scene",
			"nodes":[
				4,
				10,
				15
			]
		}
	],
	"nodes":[
		{
			"name":"Door01 Handle",
			"rotation":[
				-3.969041415530228e-07,
				-4.723759161606722e-08,
				-0.9993962049484253,
				0.03474552556872368
			],
			"scale":[
				1.000005841255188,
				1,
				1
			],
			"translation":[
				-0.006059892941266298,
				1.5786458253860474,
				-0.10082803666591644
			]
		},
		{
			"children":[
				0
			],
			"name":"Door01",
			"rotation":[
				1.5454309831852697e-08,
				1.5454309831852697e-08,
				-0.7071067690849304,
				0.7071067690849304
			],
			"translation":[
				0.1031414270401001,
				1.7421867847442627,
				0.0006139278411865234
			]
		},
		{
			"children":[
				1
			],
			"name":"Door01 Frame"
		},
		{
			"mesh":0,
			"name":"Door1",
			"skin":0
		},
		{
			"children":[
				3,
				2
			],
			"name":"Door1_root",
			"translation":[
				1.2270066738128662,
				-2.0479536056518555,
				-0.39846986532211304
			]
		},
		{
			"name":"Door02 Handle",
			"rotation":[
				-3.969041415530228e-07,
				-4.723759161606722e-08,
				-0.9993962049484253,
				0.03474552929401398
			],
			"scale":[
				1.000005841255188,
				1,
				1
			],
			"translation":[
				-0.02036905847489834,
				1.5626782178878784,
				-0.14871256053447723
			]
		},
		{
			"name":"Door02 Key",
			"rotation":[
				0.7071068286895752,
				0,
				0.7071067094802856,
				0
			],
			"scale":[
				1,
				0.9999999403953552,
				1
			],
			"translation":[
				0.11988281458616257,
				1.5626782178878784,
				-0.1222640722990036
			]
		},
		{
			"children":[
				5,
				6
			],
			"name":"Door02",
			"rotation":[
				1.5454309831852697e-08,
				1.5454309831852697e-08,
				-0.7071067690849304,
				0.7071067690849304
			],
			"translation":[
				0.1031414270401001,
				1.7421867847442627,
				0.0006139278411865234
			]
		},
		{
			"children":[
				7
			],
			"name":"Door02 Frame"
		},
		{
			"mesh":1,
			"name":"Door2",
			"skin":1
		},
		{
			"children":[
				9,
				8
			],
			"name":"Door2 Root",
			"translation":[
				-1.3356025218963623,
				-2.0479536056518555,
				-0.39846986532211304
			]
		},
		{
			"name":"Door03 Handle",
			"rotation":[
				1.8955709890633443e-07,
				-1.311189805619506e-07,
				0.731248676776886,
				0.6821109652519226
			],
			"translation":[
				-0.02036893740296364,
				1.5578317642211914,
				-0.1942717283964157
			]
		},
		{
			"children":[
				11
			],
			"name":"Door03",
			"rotation":[
				1.5454309831852697e-08,
				1.5454309831852697e-08,
				-0.7071067690849304,
				0.7071067690849304
			],
			"translation":[
				0.10314154624938965,
				1.7421867847442627,
				0.0006139278411865234
			]
		},
		{
			"children":[
				12
			],
			"name":"Door03 Frame"
		},
		{
			"mesh":2,
			"name":"Door3",
			"skin":2
		},
		{
			"children":[
				14,
				13
			],
			"name":"Door3 Root",
			"translation":[
				-3.8838446140289307,
				-2.0479536056518555,
				-0.39846986532211304
			]
		}
	],
	"animations":[
		{
			"channels":[
				{
					"sampler":0,
					"target":{
						"node":1,
						"path":"translation"
					}
				},
				{
					"sampler":1,
					"target":{
						"node":1,
						"path":"rotation"
					}
				},
				{
					"sampler":2,
					"target":{
						"node":1,
						"path":"scale"
					}
				},
				{
					"sampler":3,
					"target":{
						"node":0,
						"path":"translation"
					}
				},
				{
					"sampler":4,
					"target":{
						"node":0,
						"path":"rotation"
					}
				},
				{
					"sampler":5,
					"target":{
						"node":0,
						"path":"scale"
					}
				}
			],
			"name":"Door1",
			"samplers":[
				{
					"input":104,
					"interpolation":"STEP",
					"output":105
				},
				{
					"input":106,
					"interpolation":"LINEAR",
					"output":107
				},
				{
					"input":104,
					"interpolation":"STEP",
					"output":108
				},
				{
					"input":104,
					"interpolation":"STEP",
					"output":109
				},
				{
					"input":106,
					"interpolation":"LINEAR",
					"output":110
				},
				{
					"input":104,
					"interpolation":"STEP",
					"output":111
				}
			]
		},
		{
			"channels":[
				{
					"sampler":0,
					"target":{
						"node":7,
						"path":"translation"
					}
				},
				{
					"sampler":1,
					"target":{
						"node":7,
						"path":"rotation"
					}
				},
				{
					"sampler":2,
					"target":{
						"node":7,
						"path":"scale"
					}
				},
				{
					"sampler":3,
					"target":{
						"node":5,
						"path":"translation"
					}
				},
				{
					"sampler":4,
					"target":{
						"node":5,
						"path":"rotation"
					}
				},
				{
					"sampler":5,
					"target":{
						"node":5,
						"path":"scale"
					}
				},
				{
					"sampler":6,
					"target":{
						"node":6,
						"path":"translation"
					}
				},
				{
					"sampler":7,
					"target":{
						"node":6,
						"path":"rotation"
					}
				},
				{
					"sampler":8,
					"target":{
						"node":6,
						"path":"scale"
					}
				}
			],
			"name":"Door2",
			"samplers":[
				{
					"input":104,
					"interpolation":"STEP",
					"output":112
				},
				{
					"input":106,
					"interpolation":"LINEAR",
					"output":113
				},
				{
					"input":104,
					"interpolation":"STEP",
					"output":114
				},
				{
					"input":104,
					"interpolation":"STEP",
					"output":115
				},
				{
					"input":106,
					"interpolation":"LINEAR",
					"output":116
				},
				{
					"input":104,
					"interpolation":"STEP",
					"output":117
				},
				{
					"input":104,
					"interpolation":"STEP",
					"output":118
				},
				{
					"input":106,
					"interpolation":"LINEAR",
					"output":119
				},
				{
					"input":104,
					"interpolation":"STEP",
					"output":120
				}
			]
		},
		{
			"channels":[
				{
					"sampler":0,
					"target":{
						"node":13,
						"path":"rotation"
					}
				},
				{
					"sampler":1,
					"target":{
						"node":12,
						"path":"rotation"
					}
				},
				{
					"sampler":2,
					"target":{
						"node":11,
						"path":"rotation"
					}
				}
			],
			"name":"Door3",
			"samplers":[
				{
					"input":104,
					"interpolation":"STEP",
					"output":121
				},
				{
					"input":106,
					"interpolation":"LINEAR",
					"output":122
				},
				{
					"input":106,
					"interpolation":"LINEAR",
					"output":123
				}
			]
		}
	],
	"materials":[
		{
			"doubleSided":true,
			"name":"Door3",
			"normalTexture":{
				"extensions":{
					"KHR_texture_transform":{
						"offset":[
							0,
							-2.549999952316284
						],
						"scale":[
							3.549999952316284,
							3.549999952316284
						]
					}
				},
				"index":0,
				"scale":2.1999998092651367
			},
			"pbrMetallicRoughness":{
				"baseColorFactor":[
					0.609356164932251,
					0.609356164932251,
					0.609356164932251,
					1
				],
				"metallicFactor":0,
				"metallicRoughnessTexture":{
					"extensions":{
						"KHR_texture_transform":{
							"offset":[
								0,
								-2.549999952316284
							],
							"scale":[
								3.549999952316284,
								3.549999952316284
							]
						}
					},
					"index":1
				}
			}
		},
		{
			"doubleSided":true,
			"name":"Door 3 knob",
			"normalTexture":{
				"index":2,
				"scale":0.25999999046325684
			},
			"pbrMetallicRoughness":{
				"baseColorTexture":{
					"index":3
				},
				"roughnessFactor":0.1454545557498932
			}
		},
		{
			"doubleSided":true,
			"name":"Hinges & Lock",
			"normalTexture":{
				"index":4,
				"scale":0.25999999046325684
			},
			"pbrMetallicRoughness":{
				"baseColorTexture":{
					"index":5
				},
				"roughnessFactor":0.1506849229335785
			}
		},
		{
			"doubleSided":true,
			"name":"Screws",
			"pbrMetallicRoughness":{
				"baseColorFactor":[
					0.015923183411359787,
					0.015923183411359787,
					0.015923183411359787,
					1
				],
				"metallicFactor":0.732876718044281,
				"roughnessFactor":0.09999999403953552
			}
		},
		{
			"doubleSided":true,
			"extensions":{
				"KHR_materials_specular":{
					"specularFactor":0
				},
				"KHR_materials_ior":{
					"ior":1.4500000476837158
				}
			},
			"name":"Black",
			"pbrMetallicRoughness":{
				"baseColorFactor":[
					0.009500850923359394,
					0.009500850923359394,
					0.009500850923359394,
					1
				],
				"metallicFactor":0
			}
		},
		{
			"doubleSided":true,
			"name":"Door2",
			"normalTexture":{
				"index":6,
				"scale":1.7999999523162842
			},
			"pbrMetallicRoughness":{
				"baseColorTexture":{
					"index":7
				},
				"metallicFactor":0,
				"roughnessFactor":0.5
			}
		},
		{
			"doubleSided":true,
			"name":"Door2 Knob",
			"normalTexture":{
				"index":8
			},
			"pbrMetallicRoughness":{
				"baseColorTexture":{
					"index":9
				},
				"roughnessFactor":0.1454545557498932
			}
		},
		{
			"doubleSided":true,
			"name":"Door 3",
			"normalTexture":{
				"extensions":{
					"KHR_texture_transform":{
						"offset":[
							0,
							-4.499999523162842
						],
						"scale":[
							5.499999523162842,
							5.499999523162842
						]
					}
				},
				"index":10
			},
			"pbrMetallicRoughness":{
				"baseColorTexture":{
					"index":11
				},
				"metallicFactor":0,
				"metallicRoughnessTexture":{
					"extensions":{
						"KHR_texture_transform":{
							"offset":[
								0,
								-4.499999523162842
							],
							"scale":[
								5.499999523162842,
								5.499999523162842
							]
						}
					},
					"index":12
				}
			}
		},
		{
			"alphaMode":"BLEND",
			"doubleSided":true,
			"extensions":{
				"KHR_materials_transmission":{
					"transmissionFactor":1
				},
				"KHR_materials_ior":{
					"ior":1.4500000476837158
				}
			},
			"name":"Glass",
			"normalTexture":{
				"index":13
			},
			"pbrMetallicRoughness":{
				"baseColorFactor":[
					0.800000011920929,
					0.800000011920929,
					0.800000011920929,
					0.9318181872367859
				],
				"metallicFactor":0,
				"metallicRoughnessTexture":{
					"index":14
				}
			}
		}
	],
	"meshes":[
		{
			"name":"Door1",
			"primitives":[
				{
					"attributes":{
						"COLOR_0":0,
						"POSITION":1,
						"NORMAL":2,
						"TEXCOORD_0":3,
						"JOINTS_0":4,
						"WEIGHTS_0":5
					},
					"indices":6,
					"material":0
				},
				{
					"attributes":{
						"COLOR_0":7,
						"POSITION":8,
						"NORMAL":9,
						"TEXCOORD_0":10,
						"JOINTS_0":11,
						"WEIGHTS_0":12
					},
					"indices":13,
					"material":1
				},
				{
					"attributes":{
						"COLOR_0":14,
						"POSITION":15,
						"NORMAL":16,
						"TEXCOORD_0":17,
						"JOINTS_0":18,
						"WEIGHTS_0":19
					},
					"indices":20,
					"material":2
				},
				{
					"attributes":{
						"COLOR_0":21,
						"POSITION":22,
						"NORMAL":23,
						"TEXCOORD_0":24,
						"JOINTS_0":25,
						"WEIGHTS_0":26
					},
					"indices":27,
					"material":3
				},
				{
					"attributes":{
						"COLOR_0":28,
						"POSITION":29,
						"NORMAL":30,
						"TEXCOORD_0":31,
						"JOINTS_0":32,
						"WEIGHTS_0":33
					},
					"indices":34,
					"material":4
				}
			]
		},
		{
			"name":"Door2",
			"primitives":[
				{
					"attributes":{
						"POSITION":36,
						"NORMAL":37,
						"TEXCOORD_0":38,
						"JOINTS_0":39,
						"WEIGHTS_0":40
					},
					"indices":41,
					"material":5
				},
				{
					"attributes":{
						"POSITION":42,
						"NORMAL":43,
						"TEXCOORD_0":44,
						"JOINTS_0":45,
						"WEIGHTS_0":46
					},
					"indices":47,
					"material":6
				},
				{
					"attributes":{
						"POSITION":48,
						"NORMAL":49,
						"TEXCOORD_0":50,
						"JOINTS_0":51,
						"WEIGHTS_0":52
					},
					"indices":53,
					"material":4
				},
				{
					"attributes":{
						"POSITION":54,
						"NORMAL":55,
						"TEXCOORD_0":56,
						"JOINTS_0":57,
						"WEIGHTS_0":58
					},
					"indices":59,
					"material":2
				},
				{
					"attributes":{
						"POSITION":60,
						"NORMAL":61,
						"TEXCOORD_0":62,
						"JOINTS_0":63,
						"WEIGHTS_0":64
					},
					"indices":65,
					"material":3
				}
			]
		},
		{
			"name":"Door3",
			"primitives":[
				{
					"attributes":{
						"POSITION":67,
						"NORMAL":68,
						"TEXCOORD_0":69,
						"JOINTS_0":70,
						"WEIGHTS_0":71
					},
					"indices":72,
					"material":7
				},
				{
					"attributes":{
						"POSITION":73,
						"NORMAL":74,
						"TEXCOORD_0":75,
						"JOINTS_0":76,
						"WEIGHTS_0":77
					},
					"indices":78,
					"material":2
				},
				{
					"attributes":{
						"POSITION":79,
						"NORMAL":80,
						"TEXCOORD_0":81,
						"JOINTS_0":82,
						"WEIGHTS_0":83
					},
					"indices":84,
					"material":1
				},
				{
					"attributes":{
						"POSITION":85,
						"NORMAL":86,
						"TEXCOORD_0":87,
						"JOINTS_0":88,
						"WEIGHTS_0":89
					},
					"indices":90,
					"material":8
				},
				{
					"attributes":{
						"POSITION":91,
						"NORMAL":92,
						"TEXCOORD_0":93,
						"JOINTS_0":94,
						"WEIGHTS_0":95
					},
					"indices":96,
					"material":3
				},
				{
					"attributes":{
						"POSITION":97,
						"NORMAL":98,
						"TEXCOORD_0":99,
						"JOINTS_0":100,
						"WEIGHTS_0":101
					},
					"indices":102,
					"material":4
				}
			]
		}
	],
	"textures":[
		{
			"sampler":0,
			"source":0
		},
		{
			"sampler":0,
			"source":1
		},
		{
			"sampler":0,
			"source":2
		},
		{
			"sampler":0,
			"source":3
		},
		{
			"sampler":0,
			"source":2
		},
		{
			"sampler":0,
			"source":3
		},
		{
			"sampler":0,
			"source":4
		},
		{
			"sampler":0,
			"source":5
		},
		{
			"sampler":0,
			"source":6
		},
		{
			"sampler":0,
			"source":7
		},
		{
			"sampler":0,
			"source":0
		},
		{
			"sampler":0,
			"source":8
		},
		{
			"sampler":0,
			"source":1
		},
		{
			"sampler":0,
			"source":9
		},
		{
			"sampler":0,
			"source":10
		}
	],
	"images":[
		{
			"mimeType":"image/png",
			"name":"Door3_normal",
			"uri":"Door3_normal.png"
		},
		{
			"mimeType":"image/png",
			"name":"Door3",
			"uri":"Door3.png"
		},
		{
			"mimeType":"image/png",
			"name":"Damage_normal",
			"uri":"Damage_normal.png"
		},
		{
			"mimeType":"image/png",
			"name":"damage",
			"uri":"damage.png"
		},
		{
			"mimeType":"image/jpeg",
			"name":"Door2_NORM",
			"uri":"Door2_NORM.jpg"
		},
		{
			"mimeType":"image/jpeg",
			"name":"Door2_COLOR",
			"uri":"Door2_COLOR.jpg"
		},
		{
			"mimeType":"image/png",
			"name":"Damage_normal.png",
			"uri":"Damage_normal_png.png"
		},
		{
			"mimeType":"image/png",
			"name":"damage.png",
			"uri":"damage_png.png"
		},
		{
			"mimeType":"image/png",
			"name":"Door3_diffuse",
			"uri":"Door3_diffuse.png"
		},
		{
			"mimeType":"image/jpeg",
			"name":"Glass_Blocks_001a_Normal",
			"uri":"Glass_Blocks_001a_Normal.jpg"
		},
		{
			"mimeType":"image/png",
			"name":"Glass_Blocks_001a_Roughness",
			"uri":"Glass_Blocks_001a_Roughness.png"
		}
	],
	"skins":[
		{
			"inverseBindMatrices":35,
			"joints":[
				2,
				1,
				0
			],
			"name":"Door1_root"
		},
		{
			"inverseBindMatrices":66,
			"joints":[
				8,
				7,
				5,
				6
			],
			"name":"Door2 Root"
		},
		{
			"inverseBindMatrices":103,
			"joints":[
				13,
				12,
				11
			],
			"name":"Door3 Root"
		}
	],
	"accessors":[
		{
			"bufferView":0,
			"componentType":5123,
			"count":664,
			"normalized":true,
			"type":"VEC4"
		},
		{
			"bufferView":1,
			"componentType":5126,
			"count":664,
			"max":[
				3.1651217937469482,
				2.0479540824890137,
				-0.3069033920764923
			],
			"min":[
				1.1651217937469482,
				-2.0479536056518555,
				-0.490036278963089
			],
			"type":"VEC3"
		},
		{
			"bufferView":2,
			"componentType":5126,
			"count":664,
			"type":"VEC3"
		},
		{
			"bufferView":3,
			"componentType":5126,
			"count":664,
			"type":"VEC2"
		},
		{
			"bufferView":4,
			"componentType":5121,
			"count":664,
			"type":"VEC4"
		},
		{
			"bufferView":5,
			"componentType":5126,
			"count":664,
			"type":"VEC4"
		},
		{
			"bufferView":6,
			"componentType":5123,
			"count":1848,
			"type":"SCALAR"
		},
		{
			"bufferView":7,
			"componentType":5123,
			"count":3698,
			"normalized":true,
			"type":"VEC4"
		},
		{
			"bufferView":8,
			"componentType":5126,
			"count":3698,
			"max":[
				2.97261905670166,
				-0.23549902439117432,
				-0.3070851266384125
			],
			"min":[
				2.632991313934326,
				-0.3634558916091919,
				-0.4922164976596832
			],
			"type":"VEC3"
		},
		{
			"bufferView":9,
			"componentType":5126,
			"count":3698,
			"type":"VEC3"
		},
		{
			"bufferView":10,
			"componentType":5126,
			"count":3698,
			"type":"VEC2"
		},
		{
			"bufferView":11,
			"componentType":5121,
			"count":3698,
			"type":"VEC4"
		},
		{
			"bufferView":12,
			"componentType":5126,
			"count":3698,
			"type":"VEC4"
		},
		{
			"bufferView":13,
			"componentType":5123,
			"count":14760,
			"type":"SCALAR"
		},
		{
			"bufferView":14,
			"componentType":5123,
			"count":3202,
			"normalized":true,
			"type":"VEC4"
		},
		{
			"bufferView":15,
			"componentType":5126,
			"count":3202,
			"max":[
				3.035855531692505,
				0.9684414863586426,
				-0.35873550176620483
			],
			"min":[
				1.3200938701629639,
				-1.0986542701721191,
				-0.4232347905635834
			],
			"type":"VEC3"
		},
		{
			"bufferView":16,
			"componentType":5126,
			"count":3202,
			"type":"VEC3"
		},
		{
			"bufferView":17,
			"componentType":5126,
			"count":3202,
			"type":"VEC2"
		},
		{
			"bufferView":18,
			"componentType":5121,
			"count":3202,
			"type":"VEC4"
		},
		{
			"bufferView":19,
			"componentType":5126,
			"count":3202,
			"type":"VEC4"
		},
		{
			"bufferView":20,
			"componentType":5123,
			"count":10728,
			"type":"SCALAR"
		},
		{
			"bufferView":21,
			"componentType":5123,
			"count":192,
			"normalized":true,
			"type":"VEC4"
		},
		{
			"bufferView":22,
			"componentType":5126,
			"count":192,
			"max":[
				3.004265546798706,
				-0.24979400634765625,
				-0.3919745087623596
			],
			"min":[
				2.9961233139038086,
				-0.3617393970489502,
				-0.40373724699020386
			],
			"type":"VEC3"
		},
		{
			"bufferView":23,
			"componentType":5126,
			"count":192,
			"type":"VEC3"
		},
		{
			"bufferView":24,
			"componentType":5126,
			"count":192,
			"type":"VEC2"
		},
		{
			"bufferView":25,
			"componentType":5121,
			"count":192,
			"type":"VEC4"
		},
		{
			"bufferView":26,
			"componentType":5126,
			"count":192,
			"type":"VEC4"
		},
		{
			"bufferView":27,
			"componentType":5123,
			"count":336,
			"type":"SCALAR"
		},
		{
			"bufferView":28,
			"componentType":5123,
			"count":38,
			"normalized":true,
			"type":"VEC4"
		},
		{
			"bufferView":29,
			"componentType":5126,
			"count":38,
			"max":[
				3.0198071002960205,
				-0.28137218952178955,
				-0.32192766666412354
			],
			"min":[
				2.897932291030884,
				-0.3301612138748169,
				-0.47735995054244995
			],
			"type":"VEC3"
		},
		{
			"bufferView":30,
			"componentType":5126,
			"count":38,
			"type":"VEC3"
		},
		{
			"bufferView":31,
			"componentType":5126,
			"count":38,
			"type":"VEC2"
		},
		{
			"bufferView":32,
			"componentType":5121,
			"count":38,
			"type":"VEC4"
		},
		{
			"bufferView":33,
			"componentType":5126,
			"count":38,
			"type":"VEC4"
		},
		{
			"bufferView":34,
			"componentType":5123,
			"count":108,
			"type":"SCALAR"
		},
		{
			"bufferView":35,
			"componentType":5126,
			"count":3,
			"type":"MAT4"
		},
		{
			"bufferView":36,
			"componentType":5126,
			"count":428,
			"max":[
				0.6025124788284302,
				2.0479540824890137,
				-0.3069033920764923
			],
			"min":[
				-1.3974875211715698,
				-2.0479536056518555,
				-0.490036278963089
			],
			"type":"VEC3"
		},
		{
			"bufferView":37,
			"componentType":5126,
			"count":428,
			"type":"VEC3"
		},
		{
			"bufferView":38,
			"componentType":5126,
			"count":428,
			"type":"VEC2"
		},
		{
			"bufferView":39,
			"componentType":5121,
			"count":428,
			"type":"VEC4"
		},
		{
			"bufferView":40,
			"componentType":5126,
			"count":428,
			"type":"VEC4"
		},
		{
			"bufferView":41,
			"componentType":5123,
			"count":1272,
			"type":"SCALAR"
		},
		{
			"bufferView":42,
			"componentType":5126,
			"count":2424,
			"max":[
				0.39139288663864136,
				-0.2242220640182495,
				-0.32341521978378296
			],
			"min":[
				0.09999668598175049,
				-0.4638357162475586,
				-0.4722965359687805
			],
			"type":"VEC3"
		},
		{
			"bufferView":43,
			"componentType":5126,
			"count":2424,
			"type":"VEC3"
		},
		{
			"bufferView":44,
			"componentType":5126,
			"count":2424,
			"type":"VEC2"
		},
		{
			"bufferView":45,
			"componentType":5121,
			"count":2424,
			"type":"VEC4"
		},
		{
			"bufferView":46,
			"componentType":5126,
			"count":2424,
			"type":"VEC4"
		},
		{
			"bufferView":47,
			"componentType":5123,
			"count":10596,
			"type":"SCALAR"
		},
		{
			"bufferView":48,
			"componentType":5126,
			"count":94,
			"max":[
				0.45217716693878174,
				-0.26167070865631104,
				-0.35590505599975586
			],
			"min":[
				0.32534658908843994,
				-0.4475693702697754,
				-0.4389849901199341
			],
			"type":"VEC3"
		},
		{
			"bufferView":49,
			"componentType":5126,
			"count":94,
			"type":"VEC3"
		},
		{
			"bufferView":50,
			"componentType":5126,
			"count":94,
			"type":"VEC2"
		},
		{
			"bufferView":51,
			"componentType":5121,
			"count":94,
			"type":"VEC4"
		},
		{
			"bufferView":52,
			"componentType":5126,
			"count":94,
			"type":"VEC4"
		},
		{
			"bufferView":53,
			"componentType":5123,
			"count":324,
			"type":"SCALAR"
		},
		{
			"bufferView":54,
			"componentType":5126,
			"count":3340,
			"max":[
				0.4555126428604126,
				0.9684414863586426,
				-0.35873550176620483
			],
			"min":[
				-1.2425153255462646,
				-1.0986542701721191,
				-0.41591086983680725
			],
			"type":"VEC3"
		},
		{
			"bufferView":55,
			"componentType":5126,
			"count":3340,
			"type":"VEC3"
		},
		{
			"bufferView":56,
			"componentType":5126,
			"count":3340,
			"type":"VEC2"
		},
		{
			"bufferView":57,
			"componentType":5121,
			"count":3340,
			"type":"VEC4"
		},
		{
			"bufferView":58,
			"componentType":5126,
			"count":3340,
			"type":"VEC4"
		},
		{
			"bufferView":59,
			"componentType":5123,
			"count":10728,
			"type":"SCALAR"
		},
		{
			"bufferView":60,
			"componentType":5126,
			"count":192,
			"max":[
				0.440107524394989,
				-0.2327260971069336,
				-0.3921634256839752
			],
			"min":[
				0.4341478943824768,
				-0.34444642066955566,
				-0.40354833006858826
			],
			"type":"VEC3"
		},
		{
			"bufferView":61,
			"componentType":5126,
			"count":192,
			"type":"VEC3"
		},
		{
			"bufferView":62,
			"componentType":5126,
			"count":192,
			"type":"VEC2"
		},
		{
			"bufferView":63,
			"componentType":5121,
			"count":192,
			"type":"VEC4"
		},
		{
			"bufferView":64,
			"componentType":5126,
			"count":192,
			"type":"VEC4"
		},
		{
			"bufferView":65,
			"componentType":5123,
			"count":336,
			"type":"SCALAR"
		},
		{
			"bufferView":66,
			"componentType":5126,
			"count":4,
			"type":"MAT4"
		},
		{
			"bufferView":67,
			"componentType":5126,
			"count":808,
			"max":[
				-1.9457294940948486,
				2.0479540824890137,
				-0.3069033920764923
			],
			"min":[
				-3.9457294940948486,
				-2.0479536056518555,
				-0.490036278963089
			],
			"type":"VEC3"
		},
		{
			"bufferView":68,
			"componentType":5126,
			"count":808,
			"type":"VEC3"
		},
		{
			"bufferView":69,
			"componentType":5126,
			"count":808,
			"type":"VEC2"
		},
		{
			"bufferView":70,
			"componentType":5121,
			"count":808,
			"type":"VEC4"
		},
		{
			"bufferView":71,
			"componentType":5126,
			"count":808,
			"type":"VEC4"
		},
		{
			"bufferView":72,
			"componentType":5123,
			"count":2820,
			"type":"SCALAR"
		},
		{
			"bufferView":73,
			"componentType":5126,
			"count":3138,
			"max":[
				-2.091416835784912,
				0.9509170055389404,
				-0.3438396155834198
			],
			"min":[
				-3.790757179260254,
				-1.1161787509918213,
				-0.42779994010925293
			],
			"type":"VEC3"
		},
		{
			"bufferView":74,
			"componentType":5126,
			"count":3138,
			"type":"VEC3"
		},
		{
			"bufferView":75,
			"componentType":5126,
			"count":3138,
			"type":"VEC2"
		},
		{
			"bufferView":76,
			"componentType":5121,
			"count":3138,
			"type":"VEC4"
		},
		{
			"bufferView":77,
			"componentType":5126,
			"count":3138,
			"type":"VEC4"
		},
		{
			"bufferView":78,
			"componentType":5123,
			"count":10764,
			"type":"SCALAR"
		},
		{
			"bufferView":79,
			"componentType":5126,
			"count":3398,
			"max":[
				-2.1525886058807373,
				-0.21508073806762695,
				-0.2501791715621948
			],
			"min":[
				-2.293222665786743,
				-0.3557147979736328,
				-0.5455325841903687
			],
			"type":"VEC3"
		},
		{
			"bufferView":80,
			"componentType":5126,
			"count":3398,
			"type":"VEC3"
		},
		{
			"bufferView":81,
			"componentType":5126,
			"count":3398,
			"type":"VEC2"
		},
		{
			"bufferView":82,
			"componentType":5121,
			"count":3398,
			"type":"VEC4"
		},
		{
			"bufferView":83,
			"componentType":5126,
			"count":3398,
			"type":"VEC4"
		},
		{
			"bufferView":84,
			"componentType":5123,
			"count":13140,
			"type":"SCALAR"
		},
		{
			"bufferView":85,
			"componentType":5126,
			"count":12,
			"max":[
				-2.8222436904907227,
				1.586916446685791,
				-0.39329007267951965
			],
			"min":[
				-3.0692152976989746,
				-1.7521781921386719,
				-0.4024217426776886
			],
			"type":"VEC3"
		},
		{
			"bufferView":86,
			"componentType":5126,
			"count":12,
			"type":"VEC3"
		},
		{
			"bufferView":87,
			"componentType":5126,
			"count":12,
			"type":"VEC2"
		},
		{
			"bufferView":88,
			"componentType":5121,
			"count":12,
			"type":"VEC4"
		},
		{
			"bufferView":89,
			"componentType":5126,
			"count":12,
			"type":"VEC4"
		},
		{
			"bufferView":90,
			"componentType":5123,
			"count":24,
			"type":"SCALAR"
		},
		{
			"bufferView":91,
			"componentType":5126,
			"count":264,
			"max":[
				-2.1066854000091553,
				-0.21333587169647217,
				-0.3919101059436798
			],
			"min":[
				-2.1146175861358643,
				-0.3532249927520752,
				-0.40380164980888367
			],
			"type":"VEC3"
		},
		{
			"bufferView":92,
			"componentType":5126,
			"count":264,
			"type":"VEC3"
		},
		{
			"bufferView":93,
			"componentType":5126,
			"count":264,
			"type":"VEC2"
		},
		{
			"bufferView":94,
			"componentType":5121,
			"count":264,
			"type":"VEC4"
		},
		{
			"bufferView":95,
			"componentType":5126,
			"count":264,
			"type":"VEC4"
		},
		{
			"bufferView":96,
			"componentType":5123,
			"count":528,
			"type":"SCALAR"
		},
		{
			"bufferView":97,
			"componentType":5126,
			"count":18,
			"max":[
				-2.091416835784912,
				-0.24933195114135742,
				-0.38117682933807373
			],
			"min":[
				-2.2242226600646973,
				-0.3172290325164795,
				-0.5412548184394836
			],
			"type":"VEC3"
		},
		{
			"bufferView":98,
			"componentType":5126,
			"count":18,
			"type":"VEC3"
		},
		{
			"bufferView":99,
			"componentType":5126,
			"count":18,
			"type":"VEC2"
		},
		{
			"bufferView":100,
			"componentType":5121,
			"count":18,
			"type":"VEC4"
		},
		{
			"bufferView":101,
			"componentType":5126,
			"count":18,
			"type":"VEC4"
		},
		{
			"bufferView":102,
			"componentType":5123,
			"count":36,
			"type":"SCALAR"
		},
		{
			"bufferView":103,
			"componentType":5126,
			"count":3,
			"type":"MAT4"
		},
		{
			"bufferView":104,
			"componentType":5126,
			"count":2,
			"max":[
				5
			],
			"min":[
				0.041666666666666664
			],
			"type":"SCALAR"
		},
		{
			"bufferView":105,
			"componentType":5126,
			"count":2,
			"type":"VEC3"
		},
		{
			"bufferView":106,
			"componentType":5126,
			"count":120,
			"max":[
				5
			],
			"min":[
				0.041666666666666664
			],
			"type":"SCALAR"
		},
		{
			"bufferView":107,
			"componentType":5126,
			"count":120,
			"type":"VEC4"
		},
		{
			"bufferView":108,
			"componentType":5126,
			"count":2,
			"type":"VEC3"
		},
		{
			"bufferView":109,
			"componentType":5126,
			"count":2,
			"type":"VEC3"
		},
		{
			"bufferView":110,
			"componentType":5126,
			"count":120,
			"type":"VEC4"
		},
		{
			"bufferView":111,
			"componentType":5126,
			"count":2,
			"type":"VEC3"
		},
		{
			"bufferView":112,
			"componentType":5126,
			"count":2,
			"type":"VEC3"
		},
		{
			"bufferView":113,
			"componentType":5126,
			"count":120,
			"type":"VEC4"
		},
		{
			"bufferView":114,
			"componentType":5126,
			"count":2,
			"type":"VEC3"
		},
		{
			"bufferView":115,
			"componentType":5126,
			"count":2,
			"type":"VEC3"
		},
		{
			"bufferView":116,
			"componentType":5126,
			"count":120,
			"type":"VEC4"
		},
		{
			"bufferView":117,
			"componentType":5126,
			"count":2,
			"type":"VEC3"
		},
		{
			"bufferView":118,
			"componentType":5126,
			"count":2,
			"type":"VEC3"
		},
		{
			"bufferView":119,
			"componentType":5126,
			"count":120,
			"type":"VEC4"
		},
		{
			"bufferView":120,
			"componentType":5126,
			"count":2,
			"type":"VEC3"
		},
		{
			"bufferView":121,
			"componentType":5126,
			"count":2,
			"type":"VEC4"
		},
		{
			"bufferView":122,
			"componentType":5126,
			"count":120,
			"type":"VEC4"
		},
		{
			"bufferView":123,
			"componentType":5126,
			"count":120,
			"type":"VEC4"
		}
	],
	"bufferViews":[
		{
			"buffer":0,
			"byteLength":5312,
			"byteOffset":0,
			"target":34962
		},
		{
			"buffer":0,
			"byteLength":7968,
			"byteOffset":5312,
			"target":34962
		},
		{
			"buffer":0,
			"byteLength":7968,
			"byteOffset":13280,
			"target":34962
		},
		{
			"buffer":0,
			"byteLength":5312,
			"byteOffset":21248,
			"target":34962
		},
		{
			"buffer":0,
			"byteLength":2656,
			"byteOffset":26560,
			"target":34962
		},
		{
			"buffer":0,
			"byteLength":10624,
			"byteOffset":29216,
			"target":34962
		},
		{
			"buffer":0,
			"byteLength":3696,
			"byteOffset":39840,
			"target":34963
		},
		{
			"buffer":0,
			"byteLength":29584,
			"byteOffset":43536,
			"target":34962
		},
		{
			"buffer":0,
			"byteLength":44376,
			"byteOffset":73120,
			"target":34962
		},
		{
			"buffer":0,
			"byteLength":44376,
			"byteOffset":117496,
			"target":34962
		},
		{
			"buffer":0,
			"byteLength":29584,
			"byteOffset":161872,
			"target":34962
		},
		{
			"buffer":0,
			"byteLength":14792,
			"byteOffset":191456,
			"target":34962
		},
		{
			"buffer":0,
			"byteLength":59168,
			"byteOffset":206248,
			"target":34962
		},
		{
			"buffer":0,
			"byteLength":29520,
			"byteOffset":265416,
			"target":34963
		},
		{
			"buffer":0,
			"byteLength":25616,
			"byteOffset":294936,
			"target":34962
		},
		{
			"buffer":0,
			"byteLength":38424,
			"byteOffset":320552,
			"target":34962
		},
		{
			"buffer":0,
			"byteLength":38424,
			"byteOffset":358976,
			"target":34962
		},
		{
			"buffer":0,
			"byteLength":25616,
			"byteOffset":397400,
			"target":34962
		},
		{
			"buffer":0,
			"byteLength":12808,
			"byteOffset":423016,
			"target":34962
		},
		{
			"buffer":0,
			"byteLength":51232,
			"byteOffset":435824,
			"target":34962
		},
		{
			"buffer":0,
			"byteLength":21456,
			"byteOffset":487056,
			"target":34963
		},
		{
			"buffer":0,
			"byteLength":1536,
			"byteOffset":508512,
			"target":34962
		},
		{
			"buffer":0,
			"byteLength":2304,
			"byteOffset":510048,
			"target":34962
		},
		{
			"buffer":0,
			"byteLength":2304,
			"byteOffset":512352,
			"target":34962
		},
		{
			"buffer":0,
			"byteLength":1536,
			"byteOffset":514656,
			"target":34962
		},
		{
			"buffer":0,
			"byteLength":768,
			"byteOffset":516192,
			"target":34962
		},
		{
			"buffer":0,
			"byteLength":3072,
			"byteOffset":516960,
			"target":34962
		},
		{
			"buffer":0,
			"byteLength":672,
			"byteOffset":520032,
			"target":34963
		},
		{
			"buffer":0,
			"byteLength":304,
			"byteOffset":520704,
			"target":34962
		},
		{
			"buffer":0,
			"byteLength":456,
			"byteOffset":521008,
			"target":34962
		},
		{
			"buffer":0,
			"byteLength":456,
			"byteOffset":521464,
			"target":34962
		},
		{
			"buffer":0,
			"byteLength":304,
			"byteOffset":521920,
			"target":34962
		},
		{
			"buffer":0,
			"byteLength":152,
			"byteOffset":522224,
			"target":34962
		},
		{
			"buffer":0,
			"byteLength":608,
			"byteOffset":522376,
			"target":34962
		},
		{
			"buffer":0,
			"byteLength":216,
			"byteOffset":522984,
			"target":34963
		},
		{
			"buffer":0,
			"byteLength":192,
			"byteOffset":523200
		},
		{
			"buffer":0,
			"byteLength":5136,
			"byteOffset":523392,
			"target":34962
		},
		{
			"buffer":0,
			"byteLength":5136,
			"byteOffset":528528,
			"target":34962
		},
		{
			"buffer":0,
			"byteLength":3424,
			"byteOffset":533664,
			"target":34962
		},
		{
			"buffer":0,
			"byteLength":1712,
			"byteOffset":537088,
			"target":34962
		},
		{
			"buffer":0,
			"byteLength":6848,
			"byteOffset":538800,
			"target":34962
		},
		{
			"buffer":0,
			"byteLength":2544,
			"byteOffset":545648,
			"target":34963
		},
		{
			"buffer":0,
			"byteLength":29088,
			"byteOffset":548192,
			"target":34962
		},
		{
			"buffer":0,
			"byteLength":29088,
			"byteOffset":577280,
			"target":34962
		},
		{
			"buffer":0,
			"byteLength":19392,
			"byteOffset":606368,
			"target":34962
		},
		{
			"buffer":0,
			"byteLength":9696,
			"byteOffset":625760,
			"target":34962
		},
		{
			"buffer":0,
			"byteLength":38784,
			"byteOffset":635456,
			"target":34962
		},
		{
			"buffer":0,
			"byteLength":21192,
			"byteOffset":674240,
			"target":34963
		},
		{
			"buffer":0,
			"byteLength":1128,
			"byteOffset":695432,
			"target":34962
		},
		{
			"buffer":0,
			"byteLength":1128,
			"byteOffset":696560,
			"target":34962
		},
		{
			"buffer":0,
			"byteLength":752,
			"byteOffset":697688,
			"target":34962
		},
		{
			"buffer":0,
			"byteLength":376,
			"byteOffset":698440,
			"target":34962
		},
		{
			"buffer":0,
			"byteLength":1504,
			"byteOffset":698816,
			"target":34962
		},
		{
			"buffer":0,
			"byteLength":648,
			"byteOffset":700320,
			"target":34963
		},
		{
			"buffer":0,
			"byteLength":40080,
			"byteOffset":700968,
			"target":34962
		},
		{
			"buffer":0,
			"byteLength":40080,
			"byteOffset":741048,
			"target":34962
		},
		{
			"buffer":0,
			"byteLength":26720,
			"byteOffset":781128,
			"target":34962
		},
		{
			"buffer":0,
			"byteLength":13360,
			"byteOffset":807848,
			"target":34962
		},
		{
			"buffer":0,
			"byteLength":53440,
			"byteOffset":821208,
			"target":34962
		},
		{
			"buffer":0,
			"byteLength":21456,
			"byteOffset":874648,
			"target":34963
		},
		{
			"buffer":0,
			"byteLength":2304,
			"byteOffset":896104,
			"target":34962
		},
		{
			"buffer":0,
			"byteLength":2304,
			"byteOffset":898408,
			"target":34962
		},
		{
			"buffer":0,
			"byteLength":1536,
			"byteOffset":900712,
			"target":34962
		},
		{
			"buffer":0,
			"byteLength":768,
			"byteOffset":902248,
			"target":34962
		},
		{
			"buffer":0,
			"byteLength":3072,
			"byteOffset":903016,
			"target":34962
		},
		{
			"buffer":0,
			"byteLength":672,
			"byteOffset":906088,
			"target":34963
		},
		{
			"buffer":0,
			"byteLength":256,
			"byteOffset":906760
		},
		{
			"buffer":0,
			"byteLength":9696,
			"byteOffset":907016,
			"target":34962
		},
		{
			"buffer":0,
			"byteLength":9696,
			"byteOffset":916712,
			"target":34962
		},
		{
			"buffer":0,
			"byteLength":6464,
			"byteOffset":926408,
			"target":34962
		},
		{
			"buffer":0,
			"byteLength":3232,
			"byteOffset":932872,
			"target":34962
		},
		{
			"buffer":0,
			"byteLength":12928,
			"byteOffset":936104,
			"target":34962
		},
		{
			"buffer":0,
			"byteLength":5640,
			"byteOffset":949032,
			"target":34963
		},
		{
			"buffer":0,
			"byteLength":37656,
			"byteOffset":954672,
			"target":34962
		},
		{
			"buffer":0,
			"byteLength":37656,
			"byteOffset":992328,
			"target":34962
		},
		{
			"buffer":0,
			"byteLength":25104,
			"byteOffset":1029984,
			"target":34962
		},
		{
			"buffer":0,
			"byteLength":12552,
			"byteOffset":1055088,
			"target":34962
		},
		{
			"buffer":0,
			"byteLength":50208,
			"byteOffset":1067640,
			"target":34962
		},
		{
			"buffer":0,
			"byteLength":21528,
			"byteOffset":1117848,
			"target":34963
		},
		{
			"buffer":0,
			"byteLength":40776,
			"byteOffset":1139376,
			"target":34962
		},
		{
			"buffer":0,
			"byteLength":40776,
			"byteOffset":1180152,
			"target":34962
		},
		{
			"buffer":0,
			"byteLength":27184,
			"byteOffset":1220928,
			"target":34962
		},
		{
			"buffer":0,
			"byteLength":13592,
			"byteOffset":1248112,
			"target":34962
		},
		{
			"buffer":0,
			"byteLength":54368,
			"byteOffset":1261704,
			"target":34962
		},
		{
			"buffer":0,
			"byteLength":26280,
			"byteOffset":1316072,
			"target":34963
		},
		{
			"buffer":0,
			"byteLength":144,
			"byteOffset":1342352,
			"target":34962
		},
		{
			"buffer":0,
			"byteLength":144,
			"byteOffset":1342496,
			"target":34962
		},
		{
			"buffer":0,
			"byteLength":96,
			"byteOffset":1342640,
			"target":34962
		},
		{
			"buffer":0,
			"byteLength":48,
			"byteOffset":1342736,
			"target":34962
		},
		{
			"buffer":0,
			"byteLength":192,
			"byteOffset":1342784,
			"target":34962
		},
		{
			"buffer":0,
			"byteLength":48,
			"byteOffset":1342976,
			"target":34963
		},
		{
			"buffer":0,
			"byteLength":3168,
			"byteOffset":1343024,
			"target":34962
		},
		{
			"buffer":0,
			"byteLength":3168,
			"byteOffset":1346192,
			"target":34962
		},
		{
			"buffer":0,
			"byteLength":2112,
			"byteOffset":1349360,
			"target":34962
		},
		{
			"buffer":0,
			"byteLength":1056,
			"byteOffset":1351472,
			"target":34962
		},
		{
			"buffer":0,
			"byteLength":4224,
			"byteOffset":1352528,
			"target":34962
		},
		{
			"buffer":0,
			"byteLength":1056,
			"byteOffset":1356752,
			"target":34963
		},
		{
			"buffer":0,
			"byteLength":216,
			"byteOffset":1357808,
			"target":34962
		},
		{
			"buffer":0,
			"byteLength":216,
			"byteOffset":1358024,
			"target":34962
		},
		{
			"buffer":0,
			"byteLength":144,
			"byteOffset":1358240,
			"target":34962
		},
		{
			"buffer":0,
			"byteLength":72,
			"byteOffset":1358384,
			"target":34962
		},
		{
			"buffer":0,
			"byteLength":288,
			"byteOffset":1358456,
			"target":34962
		},
		{
			"buffer":0,
			"byteLength":72,
			"byteOffset":1358744,
			"target":34963
		},
		{
			"buffer":0,
			"byteLength":192,
			"byteOffset":1358816
		},
		{
			"buffer":0,
			"byteLength":8,
			"byteOffset":1359008
		},
		{
			"buffer":0,
			"byteLength":24,
			"byteOffset":1359016
		},
		{
			"buffer":0,
			"byteLength":480,
			"byteOffset":1359040
		},
		{
			"buffer":0,
			"byteLength":1920,
			"byteOffset":1359520
		},
		{
			"buffer":0,
			"byteLength":24,
			"byteOffset":1361440
		},
		{
			"buffer":0,
			"byteLength":24,
			"byteOffset":1361464
		},
		{
			"buffer":0,
			"byteLength":1920,
			"byteOffset":1361488
		},
		{
			"buffer":0,
			"byteLength":24,
			"byteOffset":1363408
		},
		{
			"buffer":0,
			"byteLength":24,
			"byteOffset":1363432
		},
		{
			"buffer":0,
			"byteLength":1920,
			"byteOffset":1363456
		},
		{
			"buffer":0,
			"byteLength":24,
			"byteOffset":1365376
		},
		{
			"buffer":0,
			"byteLength":24,
			"byteOffset":1365400
		},
		{
			"buffer":0,
			"byteLength":1920,
			"byteOffset":1365424
		},
		{
			"buffer":0,
			"byteLength":24,
			"byteOffset":1367344
		},
		{
			"buffer":0,
			"byteLength":24,
			"byteOffset":1367368
		},
		{
			"buffer":0,
			"byteLength":1920,
			"byteOffset":1367392
		},
		{
			"buffer":0,
			"byteLength":24,
			"byteOffset":1369312
		},
		{
			"buffer":0,
			"byteLength":32,
			"byteOffset":1369336
		},
		{
			"buffer":0,
			"byteLength":1920,
			"byteOffset":1369368
		},
		{
			"buffer":0,
			"byteLength":1920,
			"byteOffset":1371288
		}
	],
	"samplers":[
		{
			"magFilter":9729,
			"minFilter":9987
		}
	],
	"buffers":[
		{
			"byteLength":1373208,
			"uri":"Assets.bin"
		}
	]
}
