{
  "accessors": [
    {
      "bufferView": 2,
      "componentType": 5126,
      "count": 206,
      "max": [
        21.874773025512695,
        19.009700775146484,
        9.46808910369873
      ],
      "min": [
        -21.874773025512695,
        0.07352256774902344,
        -9.46808910369873
      ],
      "type": "VEC3"
    },
    {
      "bufferView": 2,
      "byteOffset": 2472,
      "componentType": 5126,
      "count": 206,
      "max": [
        1.0,
        1.0,
        1.0
      ],
      "min": [
        -1.0,
        -1.0,
        -1.0
      ],
      "type": "VEC3"
    },
    {
      "bufferView": 3,
      "componentType": 5126,
      "count": 206,
      "max": [
        1.0,
        0.9819474816322327,
        1.0,
        1.0
      ],
      "min": [
        -1.0,
        -0.9791731238365173,
        -1.0,
        1.0
      ],
      "type": "VEC4"
    },
    {
      "bufferView": 1,
      "componentType": 5126,
      "count": 206,
      "max": [
        0.5531522035598755,
        0.5651503205299377
      ],
      "min": [
        0.008304506540298462,
        0.011216267943382263
      ],
      "type": "VEC2"
    },
    {
      "bufferView": 0,
      "componentType": 5125,
      "count": 324,
      "type": "SCALAR"
    },
    {
      "bufferView": 2,
      "byteOffset": 4944,
      "componentType": 5126,
      "count": 84,
      "max": [
        21.874773025512695,
        26.22251319885254,
        8.813690185546875
      ],
      "min": [
        -21.874773025512695,
        19.087427139282227,
        -10.167390823364258
      ],
      "type": "VEC3"
    },
    {
      "bufferView": 2,
      "byteOffset": 5952,
      "componentType": 5126,
      "count": 84,
      "max": [
        1.0,
        0.9692043662071228,
        0.9692038893699646
      ],
      "min": [
        -1.0,
        -0.9692040681838989,
        -0.9692038297653198
      ],
      "type": "VEC3"
    },
    {
      "bufferView": 3,
      "byteOffset": 3296,
      "componentType": 5126,
      "count": 84,
      "max": [
        1.0,
        0.24625977873802185,
        0.9692039489746094,
        1.0
      ],
      "min": [
        0.0,
        -0.24625977873802185,
        -0.9692039489746094,
        1.0
      ],
      "type": "VEC4"
    },
    {
      "bufferView": 1,
      "byteOffset": 1648,
      "componentType": 5126,
      "count": 84,
      "max": [
        0.9675381183624268,
        0.8012260794639587
      ],
      "min": [
        0.008304506540298462,
        0.17785988748073578
      ],
      "type": "VEC2"
    },
    {
      "bufferView": 0,
      "byteOffset": 1296,
      "componentType": 5125,
      "count": 132,
      "type": "SCALAR"
    },
    {
      "bufferView": 2,
      "byteOffset": 6960,
      "componentType": 5126,
      "count": 84,
      "max": [
        5.099152565002441,
        19.231464385986328,
        -9.522478103637695
      ],
      "min": [
        -5.099152565002441,
        18.88454818725586,
        -9.869394302368164
      ],
      "type": "VEC3"
    },
    {
      "bufferView": 2,
      "byteOffset": 7968,
      "componentType": 5126,
      "count": 84,
      "max": [
        1.0,
        1.0,
        1.0
      ],
      "min": [
        -1.0,
        -1.0,
        -1.0
      ],
      "type": "VEC3"
    },
    {
      "bufferView": 3,
      "byteOffset": 4640,
      "componentType": 5126,
      "count": 84,
      "max": [
        0.0,
        1.0,
        1.0,
        1.0
      ],
      "min": [
        -0.0002047052257694304,
        -1.0,
        -1.0,
        1.0
      ],
      "type": "VEC4"
    },
    {
      "bufferView": 1,
      "byteOffset": 2320,
      "componentType": 5126,
      "count": 84,
      "max": [
        0.9916028380393982,
        0.6568047404289246
      ],
      "min": [
        0.9084072113037109,
        0.34319525957107544
      ],
      "type": "VEC2"
    },
    {
      "bufferView": 0,
      "byteOffset": 1824,
      "componentType": 5125,
      "count": 240,
      "type": "SCALAR"
    },
    {
      "bufferView": 2,
      "byteOffset": 8976,
      "componentType": 5126,
      "count": 44,
      "max": [
        2.261289119720459,
        20.163734436035156,
        -9.454561233520508
      ],
      "min": [
        -2.2958858013153076,
        18.84033966064453,
        -10.143271446228027
      ],
      "type": "VEC3"
    },
    {
      "bufferView": 2,
      "byteOffset": 9504,
      "componentType": 5126,
      "count": 44,
      "max": [
        1.0,
        0.9622094035148621,
        0.978531539440155
      ],
      "min": [
        -1.0,
        -0.9557647705078125,
        -0.9785310626029968
      ],
      "type": "VEC3"
    },
    {
      "bufferView": 3,
      "byteOffset": 5984,
      "componentType": 5126,
      "count": 44,
      "max": [
        0.999195396900177,
        0.9798684120178223,
        0.9622093439102173,
        1.0
      ],
      "min": [
        -0.9990056157112122,
        -0.9798690676689148,
        -0.9570926427841187,
        1.0
      ],
      "type": "VEC4"
    },
    {
      "bufferView": 1,
      "byteOffset": 2992,
      "componentType": 5126,
      "count": 44,
      "max": [
        0.7330431938171387,
        0.6221230626106262
      ],
      "min": [
        0.006793975830078125,
        0.11315087974071503
      ],
      "type": "VEC2"
    },
    {
      "bufferView": 0,
      "byteOffset": 2784,
      "componentType": 5125,
      "count": 84,
      "type": "SCALAR"
    },
    {
      "bufferView": 2,
      "byteOffset": 10032,
      "componentType": 5126,
      "count": 72,
      "max": [
        5.366127967834473,
        19.260196685791016,
        -9.493745803833008
      ],
      "min": [
        2.8796463012695313,
        17.995485305786133,
        -9.898125648498535
      ],
      "type": "VEC3"
    },
    {
      "bufferView": 2,
      "byteOffset": 10896,
      "componentType": 5126,
      "count": 72,
      "max": [
        1.0,
        0.9659268260002136,
        1.0
      ],
      "min": [
        -1.0,
        -1.0,
        -1.0
      ],
      "type": "VEC3"
    },
    {
      "bufferView": 3,
      "byteOffset": 6688,
      "componentType": 5126,
      "count": 72,
      "max": [
        1.0,
        1.0,
        0.9636527299880981,
        1.0
      ],
      "min": [
        -0.9963209629058838,
        -1.0,
        -0.9658920168876648,
        1.0
      ],
      "type": "VEC4"
    },
    {
      "bufferView": 1,
      "byteOffset": 3344,
      "componentType": 5126,
      "count": 72,
      "max": [
        0.971465528011322,
        1.0
      ],
      "min": [
        0.5,
        0.02613961696624756
      ],
      "type": "VEC2"
    },
    {
      "bufferView": 1,
      "byteOffset": 3920,
      "componentType": 5126,
      "count": 72,
      "max": [
        0.9868695139884949,
        0.9863103032112122
      ],
      "min": [
        0.0,
        7.172275218181312e-09
      ],
      "type": "VEC2"
    },
    {
      "bufferView": 0,
      "byteOffset": 3120,
      "componentType": 5125,
      "count": 120,
      "type": "SCALAR"
    },
    {
      "bufferView": 2,
      "byteOffset": 11760,
      "componentType": 5126,
      "count": 42,
      "max": [
        -14.180326461791992,
        3.336972951889038,
        11.383041381835938
      ],
      "min": [
        -16.313377380371094,
        0.7792689800262451,
        9.11577320098877
      ],
      "type": "VEC3"
    },
    {
      "bufferView": 2,
      "byteOffset": 12264,
      "componentType": 5126,
      "count": 42,
      "max": [
        0.9778295755386353,
        0.9445148706436157,
        0.9788110852241516
      ],
      "min": [
        -0.977878212928772,
        -0.9522229433059692,
        -0.8468537330627441
      ],
      "type": "VEC3"
    },
    {
      "bufferView": 3,
      "byteOffset": 7840,
      "componentType": 5126,
      "count": 42,
      "max": [
        0.9723610281944275,
        0.9896647334098816,
        0.7661203145980835,
        1.0
      ],
      "min": [
        -0.27601858973503113,
        -0.687359631061554,
        -0.9836291074752808,
        1.0
      ],
      "type": "VEC4"
    },
    {
      "bufferView": 1,
      "byteOffset": 4496,
      "componentType": 5126,
      "count": 42,
      "max": [
        0.5125377774238586,
        0.9828749299049377
      ],
      "min": [
        0.36050596833229065,
        0.8261375427246094
      ],
      "type": "VEC2"
    },
    {
      "bufferView": 0,
      "byteOffset": 3600,
      "componentType": 5125,
      "count": 132,
      "type": "SCALAR"
    },
    {
      "bufferView": 2,
      "byteOffset": 12768,
      "componentType": 5126,
      "count": 178,
      "max": [
        -15.904160499572754,
        1.9712228775024414,
        12.947076797485352
      ],
      "min": [
        -17.843708038330078,
        0.007898688316345215,
        9.486307144165039
      ],
      "type": "VEC3"
    },
    {
      "bufferView": 2,
      "byteOffset": 14904,
      "componentType": 5126,
      "count": 178,
      "max": [
        1.0,
        0.9897220730781555,
        0.9998999238014221
      ],
      "min": [
        -0.9594919681549072,
        -0.9897221922874451,
        -0.9998999238014221
      ],
      "type": "VEC3"
    },
    {
      "bufferView": 3,
      "byteOffset": 8512,
      "componentType": 5126,
      "count": 178,
      "max": [
        0.9993134140968323,
        0.9986225962638855,
        0.5234395861625671,
        1.0
      ],
      "min": [
        -0.9913291335105896,
        -0.9999189972877502,
        -0.4721939265727997,
        1.0
      ],
      "type": "VEC4"
    },
    {
      "bufferView": 1,
      "byteOffset": 4832,
      "componentType": 5126,
      "count": 178,
      "max": [
        0.3330414295196533,
        0.7752761840820313
      ],
      "min": [
        0.02085137367248535,
        0.6581488847732544
      ],
      "type": "VEC2"
    },
    {
      "bufferView": 0,
      "byteOffset": 4128,
      "componentType": 5125,
      "count": 726,
      "type": "SCALAR"
    },
    {
      "bufferView": 2,
      "byteOffset": 17040,
      "componentType": 5126,
      "count": 178,
      "max": [
        -12.793222427368164,
        1.9712228775024414,
        12.947076797485352
      ],
      "min": [
        -14.732770919799805,
        0.007898688316345215,
        9.486307144165039
      ],
      "type": "VEC3"
    },
    {
      "bufferView": 2,
      "byteOffset": 19176,
      "componentType": 5126,
      "count": 178,
      "max": [
        1.0,
        0.9897220730781555,
        0.9998998641967773
      ],
      "min": [
        -0.9594935178756714,
        -0.9897220730781555,
        -0.9998999238014221
      ],
      "type": "VEC3"
    },
    {
      "bufferView": 3,
      "byteOffset": 11360,
      "componentType": 5126,
      "count": 178,
      "max": [
        0.9993115067481995,
        0.9986200928688049,
        0.5234408974647522,
        1.0
      ],
      "min": [
        -0.9913291335105896,
        -0.9999189376831055,
        -0.4721931517124176,
        1.0
      ],
      "type": "VEC4"
    },
    {
      "bufferView": 1,
      "byteOffset": 6256,
      "componentType": 5126,
      "count": 178,
      "max": [
        0.26872777938842773,
        0.746444582939148
      ],
      "min": [
        0.08001121878623962,
        0.6898927092552185
      ],
      "type": "VEC2"
    },
    {
      "bufferView": 0,
      "byteOffset": 7032,
      "componentType": 5125,
      "count": 726,
      "type": "SCALAR"
    },
    {
      "bufferView": 2,
      "byteOffset": 21312,
      "componentType": 5126,
      "count": 166,
      "max": [
        -12.60487174987793,
        2.123171806335449,
        10.89173412322998
      ],
      "min": [
        -15.623092651367188,
        -0.6850780248641968,
        8.932242393493652
      ],
      "type": "VEC3"
    },
    {
      "bufferView": 2,
      "byteOffset": 23304,
      "componentType": 5126,
      "count": 166,
      "max": [
        0.9947670698165894,
        0.9996296763420105,
        0.9898209571838379
      ],
      "min": [
        -0.9811875820159912,
        -0.9760552644729614,
        -0.9898208975791931
      ],
      "type": "VEC3"
    },
    {
      "bufferView": 3,
      "byteOffset": 14208,
      "componentType": 5126,
      "count": 166,
      "max": [
        0.76593416929245,
        0.7796739339828491,
        0.9987201690673828,
        1.0
      ],
      "min": [
        -0.9196678996086121,
        -0.8804891705513,
        -0.9999266862869263,
        1.0
      ],
      "type": "VEC4"
    },
    {
      "bufferView": 1,
      "byteOffset": 7680,
      "componentType": 5126,
      "count": 166,
      "max": [
        0.2666506767272949,
        0.7308707237243652
      ],
      "min": [
        0.0202559232711792,
        0.6690554618835449
      ],
      "type": "VEC2"
    },
    {
      "bufferView": 0,
      "byteOffset": 9936,
      "componentType": 5125,
      "count": 726,
      "type": "SCALAR"
    },
    {
      "bufferView": 2,
      "byteOffset": 25296,
      "componentType": 5126,
      "count": 90,
      "max": [
        -14.434279441833496,
        5.278059959411621,
        11.412346839904785
      ],
      "min": [
        -17.45333480834961,
        1.4097415208816528,
        8.845035552978516
      ],
      "type": "VEC3"
    },
    {
      "bufferView": 2,
      "byteOffset": 26376,
      "componentType": 5126,
      "count": 90,
      "max": [
        0.9887349009513855,
        0.9608278274536133,
        0.9251272678375244
      ],
      "min": [
        -0.9572088718414307,
        -0.9392780065536499,
        -0.956392228603363
      ],
      "type": "VEC3"
    },
    {
      "bufferView": 3,
      "byteOffset": 16864,
      "componentType": 5126,
      "count": 90,
      "max": [
        0.9591612815856934,
        0.9818835854530334,
        0.9864730834960938,
        1.0
      ],
      "min": [
        -0.9457170963287354,
        -0.9585773944854736,
        -0.9780627489089966,
        -1.0
      ],
      "type": "VEC4"
    },
    {
      "bufferView": 1,
      "byteOffset": 9008,
      "componentType": 5126,
      "count": 90,
      "max": [
        0.20129597187042236,
        0.9922732710838318
      ],
      "min": [
        0.011527180671691895,
        0.7814622521400452
      ],
      "type": "VEC2"
    },
    {
      "bufferView": 0,
      "byteOffset": 12840,
      "componentType": 5125,
      "count": 228,
      "type": "SCALAR"
    },
    {
      "bufferView": 2,
      "byteOffset": 27456,
      "componentType": 5126,
      "count": 166,
      "max": [
        -17.93291473388672,
        2.1231985092163086,
        10.89173412322998
      ],
      "min": [
        -19.87246322631836,
        -1.3379181623458862,
        8.932242393493652
      ],
      "type": "VEC3"
    },
    {
      "bufferView": 2,
      "byteOffset": 29448,
      "componentType": 5126,
      "count": 166,
      "max": [
        1.0,
        1.0,
        0.9898210763931274
      ],
      "min": [
        -0.9594928026199341,
        -1.0,
        -0.9898207783699036
      ],
      "type": "VEC3"
    },
    {
      "bufferView": 3,
      "byteOffset": 18304,
      "componentType": 5126,
      "count": 166,
      "max": [
        0.999309778213501,
        0.4657773971557617,
        0.9987226724624634,
        1.0
      ],
      "min": [
        -0.9913291335105896,
        -0.5354491472244263,
        -0.9999266862869263,
        1.0
      ],
      "type": "VEC4"
    },
    {
      "bufferView": 1,
      "byteOffset": 9728,
      "componentType": 5126,
      "count": 166,
      "max": [
        0.2666506767272949,
        0.6755203008651733
      ],
      "min": [
        0.024134561419487,
        0.6289408206939697
      ],
      "type": "VEC2"
    },
    {
      "bufferView": 0,
      "byteOffset": 13752,
      "componentType": 5125,
      "count": 726,
      "type": "SCALAR"
    },
    {
      "bufferView": 2,
      "byteOffset": 31440,
      "componentType": 5126,
      "count": 76,
      "max": [
        -15.40209674835205,
        1.5595170259475708,
        11.089141845703125
      ],
      "min": [
        -18.179357528686523,
        -1.8767932653427124,
        8.908031463623047
      ],
      "type": "VEC3"
    },
    {
      "bufferView": 2,
      "byteOffset": 32352,
      "componentType": 5126,
      "count": 76,
      "max": [
        0.9438638091087341,
        0.9475149512290955,
        0.9023768305778503
      ],
      "min": [
        -0.9438640475273132,
        -0.887942373752594,
        -0.9023767113685608
      ],
      "type": "VEC3"
    },
    {
      "bufferView": 3,
      "byteOffset": 20960,
      "componentType": 5126,
      "count": 76,
      "max": [
        0.9809033870697021,
        0.9832741618156433,
        0.9486862421035767,
        1.0
      ],
      "min": [
        -0.9936936497688293,
        -0.9832744598388672,
        -0.9242293834686279,
        1.0
      ],
      "type": "VEC4"
    },
    {
      "bufferView": 1,
      "byteOffset": 11056,
      "componentType": 5126,
      "count": 76,
      "max": [
        0.344518780708313,
        0.9762481451034546
      ],
      "min": [
        0.21193522214889526,
        0.7957751154899597
      ],
      "type": "VEC2"
    },
    {
      "bufferView": 0,
      "byteOffset": 16656,
      "componentType": 5125,
      "count": 228,
      "type": "SCALAR"
    },
    {
      "bufferView": 2,
      "byteOffset": 33264,
      "componentType": 5126,
      "count": 178,
      "max": [
        -11.038805961608887,
        -0.004455924034118652,
        10.752680778503418
      ],
      "min": [
        -13.194330215454102,
        -1.278581142425537,
        9.340205192565918
      ],
      "type": "VEC3"
    },
    {
      "bufferView": 2,
      "byteOffset": 35400,
      "componentType": 5126,
      "count": 178,
      "max": [
        0.9987367987632751,
        0.9769085645675659,
        0.9835893511772156
      ],
      "min": [
        -0.9985613226890564,
        -0.9954565167427063,
        -0.9950080513954163
      ],
      "type": "VEC3"
    },
    {
      "bufferView": 3,
      "byteOffset": 22176,
      "componentType": 5126,
      "count": 178,
      "max": [
        0.6897417306900024,
        0.9957961440086365,
        0.969024121761322,
        1.0
      ],
      "min": [
        -0.6971912980079651,
        -0.9985088109970093,
        -0.9607617259025574,
        1.0
      ],
      "type": "VEC4"
    },
    {
      "bufferView": 1,
      "byteOffset": 11664,
      "componentType": 5126,
      "count": 178,
      "max": [
        0.3183669447898865,
        0.7603052854537964
      ],
      "min": [
        0.07609385251998901,
        0.699276328086853
      ],
      "type": "VEC2"
    },
    {
      "bufferView": 0,
      "byteOffset": 17568,
      "componentType": 5125,
      "count": 726,
      "type": "SCALAR"
    },
    {
      "bufferView": 2,
      "byteOffset": 37536,
      "componentType": 5126,
      "count": 178,
      "max": [
        -18.28306770324707,
        -1.0088183879852295,
        11.329143524169922
      ],
      "min": [
        -19.536495208740234,
        -2.786538600921631,
        9.34145736694336
      ],
      "type": "VEC3"
    },
    {
      "bufferView": 2,
      "byteOffset": 39672,
      "componentType": 5126,
      "count": 178,
      "max": [
        1.0,
        0.9937063455581665,
        0.9914481043815613
      ],
      "min": [
        -0.9594924449920654,
        -0.9894838333129883,
        -0.995363712310791
      ],
      "type": "VEC3"
    },
    {
      "bufferView": 3,
      "byteOffset": 25024,
      "componentType": 5126,
      "count": 178,
      "max": [
        0.9993115067481995,
        0.7996641397476196,
        0.6536357402801514,
        1.0
      ],
      "min": [
        -0.9913290143013,
        -0.9944015145301819,
        -0.7996425032615662,
        1.0
      ],
      "type": "VEC4"
    },
    {
      "bufferView": 1,
      "byteOffset": 13088,
      "componentType": 5126,
      "count": 178,
      "max": [
        0.3159347176551819,
        0.7524397373199463
      ],
      "min": [
        0.14770644903182983,
        0.6941120028495789
      ],
      "type": "VEC2"
    },
    {
      "bufferView": 0,
      "byteOffset": 20472,
      "componentType": 5125,
      "count": 726,
      "type": "SCALAR"
    },
    {
      "bufferView": 2,
      "byteOffset": 41808,
      "componentType": 5126,
      "count": 178,
      "max": [
        -16.39746856689453,
        1.481980323791504,
        14.206522941589355
      ],
      "min": [
        -17.37038230895996,
        0.49714118242263794,
        12.470538139343262
      ],
      "type": "VEC3"
    },
    {
      "bufferView": 2,
      "byteOffset": 43944,
      "componentType": 5126,
      "count": 178,
      "max": [
        1.0,
        0.9897218942642212,
        0.9998998045921326
      ],
      "min": [
        -0.9594945907592773,
        -0.9897223114967346,
        -0.9998999238014221
      ],
      "type": "VEC3"
    },
    {
      "bufferView": 3,
      "byteOffset": 27872,
      "componentType": 5126,
      "count": 178,
      "max": [
        0.9993065595626831,
        0.9986245632171631,
        0.5234467387199402,
        1.0
      ],
      "min": [
        -0.9913294911384583,
        -0.9999189376831055,
        -0.4721857011318207,
        1.0
      ],
      "type": "VEC4"
    },
    {
      "bufferView": 1,
      "byteOffset": 14512,
      "componentType": 5126,
      "count": 178,
      "max": [
        0.3098886013031006,
        0.7777429223060608
      ],
      "min": [
        0.09507352858781815,
        0.6512833833694458
      ],
      "type": "VEC2"
    },
    {
      "bufferView": 0,
      "byteOffset": 23376,
      "componentType": 5125,
      "count": 726,
      "type": "SCALAR"
    },
    {
      "bufferView": 2,
      "byteOffset": 46080,
      "componentType": 5126,
      "count": 178,
      "max": [
        -13.286531448364258,
        1.481980323791504,
        14.206522941589355
      ],
      "min": [
        -14.259444236755371,
        0.49714118242263794,
        12.470538139343262
      ],
      "type": "VEC3"
    },
    {
      "bufferView": 2,
      "byteOffset": 48216,
      "componentType": 5126,
      "count": 178,
      "max": [
        1.0,
        0.9897220134735107,
        0.9998999238014221
      ],
      "min": [
        -0.9594928622245789,
        -0.9897222518920898,
        -0.9998999238014221
      ],
      "type": "VEC3"
    },
    {
      "bufferView": 3,
      "byteOffset": 30720,
      "componentType": 5126,
      "count": 178,
      "max": [
        0.9993171095848083,
        0.9986169338226318,
        0.5234436988830566,
        1.0
      ],
      "min": [
        -0.9913294315338135,
        -0.9999189376831055,
        -0.47218409180641174,
        1.0
      ],
      "type": "VEC4"
    },
    {
      "bufferView": 1,
      "byteOffset": 15936,
      "componentType": 5126,
      "count": 178,
      "max": [
        0.25694990158081055,
        0.7741685509681702
      ],
      "min": [
        0.11431366205215454,
        0.738513171672821
      ],
      "type": "VEC2"
    },
    {
      "bufferView": 0,
      "byteOffset": 26280,
      "componentType": 5125,
      "count": 726,
      "type": "SCALAR"
    },
    {
      "bufferView": 2,
      "byteOffset": 50352,
      "componentType": 5126,
      "count": 120,
      "max": [
        16.58769416809082,
        0.5,
        16.877544403076172
      ],
      "min": [
        -4.126509666442871,
        -0.5,
        13.604763984680176
      ],
      "type": "VEC3"
    },
    {
      "bufferView": 2,
      "byteOffset": 51792,
      "componentType": 5126,
      "count": 120,
      "max": [
        0.8885152339935303,
        1.0,
        1.0
      ],
      "min": [
        -1.0,
        -1.0,
        -1.0
      ],
      "type": "VEC3"
    },
    {
      "bufferView": 3,
      "byteOffset": 33568,
      "componentType": 5126,
      "count": 120,
      "max": [
        1.0,
        0.9919252395629883,
        0.9999602437019348,
        1.0
      ],
      "min": [
        -0.9554438591003418,
        -1.0,
        -0.9958992600440979,
        1.0
      ],
      "type": "VEC4"
    },
    {
      "bufferView": 1,
      "byteOffset": 17360,
      "componentType": 5126,
      "count": 120,
      "max": [
        0.8977712392807007,
        0.7241169214248657
      ],
      "min": [
        0.5749512910842896,
        0.28525903820991516
      ],
      "type": "VEC2"
    },
    {
      "bufferView": 0,
      "byteOffset": 29184,
      "componentType": 5125,
      "count": 180,
      "type": "SCALAR"
    },
    {
      "bufferView": 2,
      "byteOffset": 53232,
      "componentType": 5126,
      "count": 144,
      "max": [
        1.7729644775390625,
        19.957609176635742,
        -9.920326232910156
      ],
      "min": [
        1.213836669921875,
        19.42793846130371,
        -10.198801040649414
      ],
      "type": "VEC3"
    },
    {
      "bufferView": 2,
      "byteOffset": 54960,
      "componentType": 5126,
      "count": 144,
      "max": [
        0.8857617974281311,
        0.7426774501800537,
        0.9441911578178406
      ],
      "min": [
        -0.8857633471488953,
        -0.9299700260162354,
        -0.9860725402832031
      ],
      "type": "VEC3"
    },
    {
      "bufferView": 3,
      "byteOffset": 35488,
      "componentType": 5126,
      "count": 144,
      "max": [
        0.9238806366920471,
        0.9680978655815125,
        0.828148365020752,
        1.0
      ],
      "min": [
        -0.5513992309570313,
        -0.1298900842666626,
        -0.9963023066520691,
        1.0
      ],
      "type": "VEC4"
    },
    {
      "bufferView": 1,
      "byteOffset": 18320,
      "componentType": 5126,
      "count": 144,
      "max": [
        0.849636435508728,
        0.37612149119377136
      ],
      "min": [
        0.7968626022338867,
        0.23636770248413086
      ],
      "type": "VEC2"
    },
    {
      "bufferView": 0,
      "byteOffset": 29904,
      "componentType": 5125,
      "count": 192,
      "type": "SCALAR"
    },
    {
      "bufferView": 2,
      "byteOffset": 56688,
      "componentType": 5126,
      "count": 144,
      "max": [
        0.14543606340885162,
        19.957609176635742,
        -9.920326232910156
      ],
      "min": [
        -0.41369175910949707,
        19.42793846130371,
        -10.198801040649414
      ],
      "type": "VEC3"
    },
    {
      "bufferView": 2,
      "byteOffset": 58416,
      "componentType": 5126,
      "count": 144,
      "max": [
        0.8857629895210266,
        0.742677628993988,
        0.9441913962364197
      ],
      "min": [
        -0.8857634663581848,
        -0.9299700260162354,
        -0.9860721826553345
      ],
      "type": "VEC3"
    },
    {
      "bufferView": 3,
      "byteOffset": 37792,
      "componentType": 5126,
      "count": 144,
      "max": [
        0.9238808155059814,
        0.9680978655815125,
        0.8281484246253967,
        1.0
      ],
      "min": [
        -0.5514012575149536,
        -0.12988565862178802,
        -0.9963022470474243,
        1.0
      ],
      "type": "VEC4"
    },
    {
      "bufferView": 1,
      "byteOffset": 19472,
      "componentType": 5126,
      "count": 144,
      "max": [
        0.9017353057861328,
        0.376230388879776
      ],
      "min": [
        0.841595470905304,
        0.2821110486984253
      ],
      "type": "VEC2"
    },
    {
      "bufferView": 0,
      "byteOffset": 30672,
      "componentType": 5125,
      "count": 192,
      "type": "SCALAR"
    },
    {
      "bufferView": 2,
      "byteOffset": 60144,
      "componentType": 5126,
      "count": 144,
      "max": [
        -1.4719592332839966,
        19.957609176635742,
        -9.920326232910156
      ],
      "min": [
        -2.0310869216918945,
        19.42793846130371,
        -10.198801040649414
      ],
      "type": "VEC3"
    },
    {
      "bufferView": 2,
      "byteOffset": 61872,
      "componentType": 5126,
      "count": 144,
      "max": [
        0.8857619762420654,
        0.7426779270172119,
        0.9441909790039063
      ],
      "min": [
        -0.8857647180557251,
        -0.9299701452255249,
        -0.9860725402832031
      ],
      "type": "VEC3"
    },
    {
      "bufferView": 3,
      "byteOffset": 40096,
      "componentType": 5126,
      "count": 144,
      "max": [
        0.9238798022270203,
        0.9680968523025513,
        0.8281485438346863,
        1.0
      ],
      "min": [
        -0.551397442817688,
        -0.1298871785402298,
        -0.9963026642799377,
        1.0
      ],
      "type": "VEC4"
    },
    {
      "bufferView": 1,
      "byteOffset": 20624,
      "componentType": 5126,
      "count": 144,
      "max": [
        0.9651070833206177,
        0.4287072420120239
      ],
      "min": [
        0.7906498312950134,
        0.23430269956588745
      ],
      "type": "VEC2"
    },
    {
      "bufferView": 0,
      "byteOffset": 31440,
      "componentType": 5125,
      "count": 192,
      "type": "SCALAR"
    },
    {
      "bufferView": 2,
      "byteOffset": 63600,
      "componentType": 5126,
      "count": 129,
      "max": [
        -2.934816837310791,
        18.71076011657715,
        -9.748920440673828
      ],
      "min": [
        -3.4939446449279785,
        18.15163230895996,
        -9.922187805175781
      ],
      "type": "VEC3"
    },
    {
      "bufferView": 2,
      "byteOffset": 65148,
      "componentType": 5126,
      "count": 129,
      "max": [
        0.8857624530792236,
        0.8857646584510803,
        1.0
      ],
      "min": [
        -0.8857643604278564,
        -0.8857664465904236,
        -0.9912139773368835
      ],
      "type": "VEC3"
    },
    {
      "bufferView": 3,
      "byteOffset": 42400,
      "componentType": 5126,
      "count": 129,
      "max": [
        0.9238821268081665,
        0.9239025115966797,
        0.957831859588623,
        1.0
      ],
      "min": [
        -0.5514051914215088,
        0.19177590310573578,
        -0.9578342437744141,
        1.0
      ],
      "type": "VEC4"
    },
    {
      "bufferView": 1,
      "byteOffset": 21776,
      "componentType": 5126,
      "count": 129,
      "max": [
        0.9270437955856323,
        0.42799869179725647
      ],
      "min": [
        0.846977949142456,
        0.23430269956588745
      ],
      "type": "VEC2"
    },
    {
      "bufferView": 0,
      "byteOffset": 32208,
      "componentType": 5125,
      "count": 192,
      "type": "SCALAR"
    },
    {
      "bufferView": 2,
      "byteOffset": 66696,
      "componentType": 5126,
      "count": 129,
      "max": [
        -4.576875686645508,
        18.71076011657715,
        -9.748920440673828
      ],
      "min": [
        -5.136003494262695,
        18.15163230895996,
        -9.922187805175781
      ],
      "type": "VEC3"
    },
    {
      "bufferView": 2,
      "byteOffset": 68244,
      "componentType": 5126,
      "count": 129,
      "max": [
        0.8857673406600952,
        0.8857650756835938,
        1.0
      ],
      "min": [
        -0.8857652544975281,
        -0.885766863822937,
        -0.991213858127594
      ],
      "type": "VEC3"
    },
    {
      "bufferView": 3,
      "byteOffset": 44464,
      "componentType": 5126,
      "count": 129,
      "max": [
        0.9238809943199158,
        0.9239039421081543,
        0.9578320980072021,
        1.0
      ],
      "min": [
        -0.5514037609100342,
        0.19177548587322235,
        -0.9578342437744141,
        1.0
      ],
      "type": "VEC4"
    },
    {
      "bufferView": 1,
      "byteOffset": 22808,
      "componentType": 5126,
      "count": 129,
      "max": [
        0.9212868809700012,
        0.3265339434146881
      ],
      "min": [
        0.7819960713386536,
        0.27933475375175476
      ],
      "type": "VEC2"
    },
    {
      "bufferView": 0,
      "byteOffset": 32976,
      "componentType": 5125,
      "count": 192,
      "type": "SCALAR"
    },
    {
      "bufferView": 2,
      "byteOffset": 69792,
      "componentType": 5126,
      "count": 129,
      "max": [
        3.5084195137023926,
        18.71076011657715,
        -9.748920440673828
      ],
      "min": [
        2.949291706085205,
        18.15163230895996,
        -9.922187805175781
      ],
      "type": "VEC3"
    },
    {
      "bufferView": 2,
      "byteOffset": 71340,
      "componentType": 5126,
      "count": 129,
      "max": [
        0.8857624530792236,
        0.8857646584510803,
        1.0
      ],
      "min": [
        -0.8857643604278564,
        -0.8857664465904236,
        -0.9912139773368835
      ],
      "type": "VEC3"
    },
    {
      "bufferView": 3,
      "byteOffset": 46528,
      "componentType": 5126,
      "count": 129,
      "max": [
        0.9238805174827576,
        0.9239028692245483,
        0.9578316807746887,
        1.0
      ],
      "min": [
        -0.551405131816864,
        0.19177274405956268,
        -0.9578348398208618,
        1.0
      ],
      "type": "VEC4"
    },
    {
      "bufferView": 1,
      "byteOffset": 23840,
      "componentType": 5126,
      "count": 129,
      "max": [
        0.8808810710906982,
        0.3252170979976654
      ],
      "min": [
        0.7253764867782593,
        0.23838800191879272
      ],
      "type": "VEC2"
    },
    {
      "bufferView": 0,
      "byteOffset": 33744,
      "componentType": 5125,
      "count": 192,
      "type": "SCALAR"
    },
    {
      "bufferView": 2,
      "byteOffset": 72888,
      "componentType": 5126,
      "count": 129,
      "max": [
        5.150478363037109,
        18.71076011657715,
        -9.748920440673828
      ],
      "min": [
        4.591350555419922,
        18.15163230895996,
        -9.922187805175781
      ],
      "type": "VEC3"
    },
    {
      "bufferView": 2,
      "byteOffset": 74436,
      "componentType": 5126,
      "count": 129,
      "max": [
        0.8857673406600952,
        0.8857646584510803,
        1.0
      ],
      "min": [
        -0.8857645988464355,
        -0.885766863822937,
        -0.991213858127594
      ],
      "type": "VEC3"
    },
    {
      "bufferView": 3,
      "byteOffset": 48592,
      "componentType": 5126,
      "count": 129,
      "max": [
        0.923880934715271,
        0.9239039421081543,
        0.9578315019607544,
        1.0
      ],
      "min": [
        -0.5514034032821655,
        0.19177548587322235,
        -0.9578342437744141,
        1.0
      ],
      "type": "VEC4"
    },
    {
      "bufferView": 1,
      "byteOffset": 24872,
      "componentType": 5126,
      "count": 129,
      "max": [
        0.9645828008651733,
        0.37852394580841064
      ],
      "min": [
        0.748461127281189,
        0.2786160409450531
      ],
      "type": "VEC2"
    },
    {
      "bufferView": 0,
      "byteOffset": 34512,
      "componentType": 5125,
      "count": 192,
      "type": "SCALAR"
    },
    {
      "bufferView": 2,
      "byteOffset": 75984,
      "componentType": 5126,
      "count": 70,
      "max": [
        -2.831005096435547,
        19.260196685791016,
        -9.493745803833008
      ],
      "min": [
        -5.317479133605957,
        17.995485305786133,
        -9.898125648498535
      ],
      "type": "VEC3"
    },
    {
      "bufferView": 2,
      "byteOffset": 76824,
      "componentType": 5126,
      "count": 70,
      "max": [
        1.0,
        0.9659270644187927,
        1.0
      ],
      "min": [
        -1.0,
        -1.0,
        -1.0
      ],
      "type": "VEC3"
    },
    {
      "bufferView": 3,
      "byteOffset": 50656,
      "componentType": 5126,
      "count": 70,
      "max": [
        1.0,
        1.0,
        0.965996503829956,
        1.0
      ],
      "min": [
        -1.0,
        -1.0,
        -0.9658920764923096,
        -1.0
      ],
      "type": "VEC4"
    },
    {
      "bufferView": 1,
      "byteOffset": 25904,
      "componentType": 5126,
      "count": 70,
      "max": [
        0.971465528011322,
        1.0
      ],
      "min": [
        0.5,
        0.11945843696594238
      ],
      "type": "VEC2"
    },
    {
      "bufferView": 1,
      "byteOffset": 26464,
      "componentType": 5126,
      "count": 70,
      "max": [
        0.9889804720878601,
        0.404448002576828
      ],
      "min": [
        0.0,
        -0.003832876682281494
      ],
      "type": "VEC2"
    },
    {
      "bufferView": 0,
      "byteOffset": 35280,
      "componentType": 5125,
      "count": 120,
      "type": "SCALAR"
    },
    {
      "bufferView": 2,
      "byteOffset": 77664,
      "componentType": 5126,
      "count": 460,
      "max": [
        -0.682172417640686,
        18.21341896057129,
        1.0000001192092896
      ],
      "min": [
        -2.6821727752685547,
        16.21341896057129,
        -1.0000004768371582
      ],
      "type": "VEC3"
    },
    {
      "bufferView": 2,
      "byteOffset": 83184,
      "componentType": 5126,
      "count": 460,
      "max": [
        1.0,
        1.0,
        1.0
      ],
      "min": [
        -1.0,
        -1.0,
        -1.0
      ],
      "type": "VEC3"
    },
    {
      "bufferView": 3,
      "byteOffset": 51776,
      "componentType": 5126,
      "count": 460,
      "max": [
        0.8218644857406616,
        0.999547004699707,
        0.9996923208236694,
        1.0
      ],
      "min": [
        -0.47873881459236145,
        -0.9977222681045532,
        -0.16350527107715607,
        1.0
      ],
      "type": "VEC4"
    },
    {
      "bufferView": 1,
      "byteOffset": 27024,
      "componentType": 5126,
      "count": 460,
      "max": [
        0.5790177583694458,
        0.7425899505615234
      ],
      "min": [
        0.49128416180610657,
        0.5920478105545044
      ],
      "type": "VEC2"
    },
    {
      "bufferView": 0,
      "byteOffset": 35760,
      "componentType": 5125,
      "count": 2280,
      "type": "SCALAR"
    },
    {
      "bufferView": 2,
      "byteOffset": 88704,
      "componentType": 5126,
      "count": 460,
      "max": [
        4.19777774810791,
        18.21341896057129,
        1.0000001192092896
      ],
      "min": [
        2.197777271270752,
        16.21341896057129,
        -1.0000004768371582
      ],
      "type": "VEC3"
    },
    {
      "bufferView": 2,
      "byteOffset": 94224,
      "componentType": 5126,
      "count": 460,
      "max": [
        1.0,
        1.0,
        1.0
      ],
      "min": [
        -1.0,
        -1.0,
        -1.0
      ],
      "type": "VEC3"
    },
    {
      "bufferView": 3,
      "byteOffset": 59136,
      "componentType": 5126,
      "count": 460,
      "max": [
        0.8218706846237183,
        0.9995467066764832,
        0.9996923208236694,
        1.0
      ],
      "min": [
        -0.47873878479003906,
        -0.997722327709198,
        -0.1635003238916397,
        1.0
      ],
      "type": "VEC4"
    },
    {
      "bufferView": 1,
      "byteOffset": 30704,
      "componentType": 5126,
      "count": 460,
      "max": [
        0.45980456471443176,
        0.7576091885566711
      ],
      "min": [
        0.37207093834877014,
        0.6070670485496521
      ],
      "type": "VEC2"
    },
    {
      "bufferView": 0,
      "byteOffset": 44880,
      "componentType": 5125,
      "count": 2280,
      "type": "SCALAR"
    }
  ],
  "asset": {
    "extras": {
      "author": "Christopher Turner (https://sketchfab.com/Christopher.260)",
      "license": "CC-BY-4.0 (http://creativecommons.org/licenses/by/4.0/)",
      "source": "https://sketchfab.com/3d-models/horror-toy-chest-af6bc05358fe45aa9719c26afe76ec85",
      "title": "Horror Toy Chest"
    },
    "generator": "Sketchfab-14.87.0",
    "version": "2.0"
  },
  "bufferViews": [
    {
      "buffer": 0,
      "byteLength": 54000,
      "name": "floatBufferViews",
      "target": 34963
    },
    {
      "buffer": 0,
      "byteLength": 34384,
      "byteOffset": 54000,
      "byteStride": 8,
      "name": "floatBufferViews",
      "target": 34962
    },
    {
      "buffer": 0,
      "byteLength": 99744,
      "byteOffset": 88384,
      "byteStride": 12,
      "name": "floatBufferViews",
      "target": 34962
    },
    {
      "buffer": 0,
      "byteLength": 66496,
      "byteOffset": 188128,
      "byteStride": 16,
      "name": "floatBufferViews",
      "target": 34962
    }
  ],
  "buffers": [
    {
      "byteLength": 254624,
      "uri": "scene.bin"
    }
  ],
  "extensionsUsed": [
    "KHR_materials_specular"
  ],
  "images": [
    {
      "uri": "textures/lambert1_baseColor.png"
    },
    {
      "uri": "textures/lambert1_metallicRoughness.png"
    },
    {
      "uri": "textures/lambert1_emissive.png"
    },
    {
      "uri": "textures/lambert1_normal.png"
    },
    {
      "uri": "textures/lambert1_specularf0.png"
    }
  ],
  "materials": [
    {
      "doubleSided": true,
      "emissiveFactor": [
        0.3006137959494353,
        0.3006137959494353,
        0.3006137959494353
      ],
      "emissiveTexture": {
        "index": 2
      },
      "extensions": {
        "KHR_materials_specular": {
          "specularColorFactor": [
            1.0,
            1.0,
            1.0
          ],
          "specularFactor": 1.0,
          "specularTexture": {
            "index": 4
          }
        }
      },
      "name": "lambert1",
      "normalTexture": {
        "index": 3
      },
      "occlusionTexture": {
        "index": 1
      },
      "pbrMetallicRoughness": {
        "baseColorTexture": {
          "index": 0
        },
        "metallicRoughnessTexture": {
          "index": 1
        }
      }
    }
  ],
  "meshes": [
    {
      "name": "pCube1_lambert1_0",
      "primitives": [
        {
          "attributes": {
            "NORMAL": 1,
            "POSITION": 0,
            "TANGENT": 2,
            "TEXCOORD_0": 3
          },
          "indices": 4,
          "material": 0,
          "mode": 4
        }
      ]
    },
    {
      "name": "pCube2_lambert1_0",
      "primitives": [
        {
          "attributes": {
            "NORMAL": 6,
            "POSITION": 5,
            "TANGENT": 7,
            "TEXCOORD_0": 8
          },
          "indices": 9,
          "material": 0,
          "mode": 4
        }
      ]
    },
    {
      "name": "pCylinder1_lambert1_0",
      "primitives": [
        {
          "attributes": {
            "NORMAL": 11,
            "POSITION": 10,
            "TANGENT": 12,
            "TEXCOORD_0": 13
          },
          "indices": 14,
          "material": 0,
          "mode": 4
        }
      ]
    },
    {
      "name": "pCube3_lambert1_0",
      "primitives": [
        {
          "attributes": {
            "NORMAL": 16,
            "POSITION": 15,
            "TANGENT": 17,
            "TEXCOORD_0": 18
          },
          "indices": 19,
          "material": 0,
          "mode": 4
        }
      ]
    },
    {
      "name": "pCube4_lambert1_0",
      "primitives": [
        {
          "attributes": {
            "NORMAL": 21,
            "POSITION": 20,
            "TANGENT": 22,
            "TEXCOORD_0": 23,
            "TEXCOORD_1": 24
          },
          "indices": 25,
          "material": 0,
          "mode": 4
        }
      ]
    },
    {
      "name": "pCube8_lambert1_0",
      "primitives": [
        {
          "attributes": {
            "NORMAL": 27,
            "POSITION": 26,
            "TANGENT": 28,
            "TEXCOORD_0": 29
          },
          "indices": 30,
          "material": 0,
          "mode": 4
        }
      ]
    },
    {
      "name": "pSphere6_lambert1_0",
      "primitives": [
        {
          "attributes": {
            "NORMAL": 32,
            "POSITION": 31,
            "TANGENT": 33,
            "TEXCOORD_0": 34
          },
          "indices": 35,
          "material": 0,
          "mode": 4
        }
      ]
    },
    {
      "name": "pSphere7_lambert1_0",
      "primitives": [
        {
          "attributes": {
            "NORMAL": 37,
            "POSITION": 36,
            "TANGENT": 38,
            "TEXCOORD_0": 39
          },
          "indices": 40,
          "material": 0,
          "mode": 4
        }
      ]
    },
    {
      "name": "pSphere2_lambert1_0",
      "primitives": [
        {
          "attributes": {
            "NORMAL": 42,
            "POSITION": 41,
            "TANGENT": 43,
            "TEXCOORD_0": 44
          },
          "indices": 45,
          "material": 0,
          "mode": 4
        }
      ]
    },
    {
      "name": "pCube6_lambert1_0",
      "primitives": [
        {
          "attributes": {
            "NORMAL": 47,
            "POSITION": 46,
            "TANGENT": 48,
            "TEXCOORD_0": 49
          },
          "indices": 50,
          "material": 0,
          "mode": 4
        }
      ]
    },
    {
      "name": "pSphere1_lambert1_0",
      "primitives": [
        {
          "attributes": {
            "NORMAL": 52,
            "POSITION": 51,
            "TANGENT": 53,
            "TEXCOORD_0": 54
          },
          "indices": 55,
          "material": 0,
          "mode": 4
        }
      ]
    },
    {
      "name": "pCube7_lambert1_0",
      "primitives": [
        {
          "attributes": {
            "NORMAL": 57,
            "POSITION": 56,
            "TANGENT": 58,
            "TEXCOORD_0": 59
          },
          "indices": 60,
          "material": 0,
          "mode": 4
        }
      ]
    },
    {
      "name": "pSphere5_lambert1_0",
      "primitives": [
        {
          "attributes": {
            "NORMAL": 62,
            "POSITION": 61,
            "TANGENT": 63,
            "TEXCOORD_0": 64
          },
          "indices": 65,
          "material": 0,
          "mode": 4
        }
      ]
    },
    {
      "name": "pSphere4_lambert1_0",
      "primitives": [
        {
          "attributes": {
            "NORMAL": 67,
            "POSITION": 66,
            "TANGENT": 68,
            "TEXCOORD_0": 69
          },
          "indices": 70,
          "material": 0,
          "mode": 4
        }
      ]
    },
    {
      "name": "pSphere8_lambert1_0",
      "primitives": [
        {
          "attributes": {
            "NORMAL": 72,
            "POSITION": 71,
            "TANGENT": 73,
            "TEXCOORD_0": 74
          },
          "indices": 75,
          "material": 0,
          "mode": 4
        }
      ]
    },
    {
      "name": "pSphere9_lambert1_0",
      "primitives": [
        {
          "attributes": {
            "NORMAL": 77,
            "POSITION": 76,
            "TANGENT": 78,
            "TEXCOORD_0": 79
          },
          "indices": 80,
          "material": 0,
          "mode": 4
        }
      ]
    },
    {
      "name": "pCube9_lambert1_0",
      "primitives": [
        {
          "attributes": {
            "NORMAL": 82,
            "POSITION": 81,
            "TANGENT": 83,
            "TEXCOORD_0": 84
          },
          "indices": 85,
          "material": 0,
          "mode": 4
        }
      ]
    },
    {
      "name": "pSphere17_lambert1_0",
      "primitives": [
        {
          "attributes": {
            "NORMAL": 87,
            "POSITION": 86,
            "TANGENT": 88,
            "TEXCOORD_0": 89
          },
          "indices": 90,
          "material": 0,
          "mode": 4
        }
      ]
    },
    {
      "name": "pSphere18_lambert1_0",
      "primitives": [
        {
          "attributes": {
            "NORMAL": 92,
            "POSITION": 91,
            "TANGENT": 93,
            "TEXCOORD_0": 94
          },
          "indices": 95,
          "material": 0,
          "mode": 4
        }
      ]
    },
    {
      "name": "pSphere19_lambert1_0",
      "primitives": [
        {
          "attributes": {
            "NORMAL": 97,
            "POSITION": 96,
            "TANGENT": 98,
            "TEXCOORD_0": 99
          },
          "indices": 100,
          "material": 0,
          "mode": 4
        }
      ]
    },
    {
      "name": "pSphere20_lambert1_0",
      "primitives": [
        {
          "attributes": {
            "NORMAL": 102,
            "POSITION": 101,
            "TANGENT": 103,
            "TEXCOORD_0": 104
          },
          "indices": 105,
          "material": 0,
          "mode": 4
        }
      ]
    },
    {
      "name": "pSphere21_lambert1_0",
      "primitives": [
        {
          "attributes": {
            "NORMAL": 107,
            "POSITION": 106,
            "TANGENT": 108,
            "TEXCOORD_0": 109
          },
          "indices": 110,
          "material": 0,
          "mode": 4
        }
      ]
    },
    {
      "name": "pSphere22_lambert1_0",
      "primitives": [
        {
          "attributes": {
            "NORMAL": 112,
            "POSITION": 111,
            "TANGENT": 113,
            "TEXCOORD_0": 114
          },
          "indices": 115,
          "material": 0,
          "mode": 4
        }
      ]
    },
    {
      "name": "pSphere23_lambert1_0",
      "primitives": [
        {
          "attributes": {
            "NORMAL": 117,
            "POSITION": 116,
            "TANGENT": 118,
            "TEXCOORD_0": 119
          },
          "indices": 120,
          "material": 0,
          "mode": 4
        }
      ]
    },
    {
      "name": "pCube10_lambert1_0",
      "primitives": [
        {
          "attributes": {
            "NORMAL": 122,
            "POSITION": 121,
            "TANGENT": 123,
            "TEXCOORD_0": 124,
            "TEXCOORD_1": 125
          },
          "indices": 126,
          "material": 0,
          "mode": 4
        }
      ]
    },
    {
      "name": "pSphere24_lambert1_0",
      "primitives": [
        {
          "attributes": {
            "NORMAL": 128,
            "POSITION": 127,
            "TANGENT": 129,
            "TEXCOORD_0": 130
          },
          "indices": 131,
          "material": 0,
          "mode": 4
        }
      ]
    },
    {
      "name": "pSphere25_lambert1_0",
      "primitives": [
        {
          "attributes": {
            "NORMAL": 133,
            "POSITION": 132,
            "TANGENT": 134,
            "TEXCOORD_0": 135
          },
          "indices": 136,
          "material": 0,
          "mode": 4
        }
      ]
    }
  ],
  "nodes": [
    {
      "children": [
        1
      ],
      "matrix": [
        1.0,
        0.0,
        0.0,
        0.0,
        0.0,
        2.220446049250313e-16,
        -1.0,
        0.0,
        0.0,
        1.0,
        2.220446049250313e-16,
        0.0,
        0.0,
        0.0,
        0.0,
        1.0
      ],
      "name": "Sketchfab_model"
    },
    {
      "children": [
        2
      ],
      "matrix": [
        0.009999999776482582,
        0.0,
        0.0,
        0.0,
        0.0,
        0.0,
        0.009999999776482582,
        0.0,
        0.0,
        -0.009999999776482582,
        0.0,
        0.0,
        0.0,
        0.0,
        0.0,
        1.0
      ],
      "name": "919b26b92eb7435482a29a88cc05a462.fbx"
    },
    {
      "children": [
        3,
        5,
        7,
        9,
        11,
        13,
        15,
        17,
        19,
        21,
        34,
        36,
        38,
        40,
        42,
        44,
        46,
        48,
        50,
        52,
        54,
        56,
        58
      ],
      "name": "RootNode"
    },
    {
      "children": [
        4
      ],
      "name": "pCube1"
    },
    {
      "mesh": 0,
      "name": "pCube1_lambert1_0"
    },
    {
      "children": [
        6
      ],
      "name": "pCube2"
    },
    {
      "mesh": 1,
      "name": "pCube2_lambert1_0"
    },
    {
      "children": [
        8
      ],
      "matrix": [
        1.0,
        0.0,
        0.0,
        0.0,
        0.0,
        1.0,
        0.0,
        0.0,
        0.0,
        0.0,
        1.0,
        0.0,
        -1000.101318359375,
        19.28277587890625,
        -9.964897155761719,
        1.0
      ],
      "name": "left"
    },
    {
      "name": "Object_8"
    },
    {
      "children": [
        10
      ],
      "name": "pCylinder1"
    },
    {
      "mesh": 2,
      "name": "pCylinder1_lambert1_0"
    },
    {
      "children": [
        12
      ],
      "name": "pCube3"
    },
    {
      "mesh": 3,
      "name": "pCube3_lambert1_0"
    },
    {
      "children": [
        14
      ],
      "name": "pCube4"
    },
    {
      "mesh": 4,
      "name": "pCube4_lambert1_0"
    },
    {
      "children": [
        16
      ],
      "name": "pCube8"
    },
    {
      "mesh": 5,
      "name": "pCube8_lambert1_0"
    },
    {
      "children": [
        18
      ],
      "name": "pSphere6"
    },
    {
      "mesh": 6,
      "name": "pSphere6_lambert1_0"
    },
    {
      "children": [
        20
      ],
      "name": "pSphere7"
    },
    {
      "mesh": 7,
      "name": "pSphere7_lambert1_0"
    },
    {
      "children": [
        22,
        24,
        26,
        28,
        30,
        32
      ],
      "matrix": [
        0.9582205053013697,
        -0.2860305284755244,
        0.0,
        0.0,
        0.2860305284755244,
        0.9582205053013697,
        0.0,
        0.0,
        0.0,
        0.0,
        1.0,
        0.0,
        1.4220845699310303,
        0.0,
        0.0,
        1.0
      ],
      "name": "group1"
    },
    {
      "children": [
        23
      ],
      "name": "pSphere2"
    },
    {
      "mesh": 8,
      "name": "pSphere2_lambert1_0"
    },
    {
      "children": [
        25
      ],
      "name": "pCube6"
    },
    {
      "mesh": 9,
      "name": "pCube6_lambert1_0"
    },
    {
      "children": [
        27
      ],
      "name": "pSphere1"
    },
    {
      "mesh": 10,
      "name": "pSphere1_lambert1_0"
    },
    {
      "children": [
        29
      ],
      "name": "pCube7"
    },
    {
      "mesh": 11,
      "name": "pCube7_lambert1_0"
    },
    {
      "children": [
        31
      ],
      "name": "pSphere5"
    },
    {
      "mesh": 12,
      "name": "pSphere5_lambert1_0"
    },
    {
      "children": [
        33
      ],
      "name": "pSphere4"
    },
    {
      "mesh": 13,
      "name": "pSphere4_lambert1_0"
    },
    {
      "children": [
        35
      ],
      "name": "pSphere8"
    },
    {
      "mesh": 14,
      "name": "pSphere8_lambert1_0"
    },
    {
      "children": [
        37
      ],
      "name": "pSphere9"
    },
    {
      "mesh": 15,
      "name": "pSphere9_lambert1_0"
    },
    {
      "children": [
        39
      ],
      "name": "pCube9"
    },
    {
      "mesh": 16,
      "name": "pCube9_lambert1_0"
    },
    {
      "children": [
        41
      ],
      "name": "pSphere17"
    },
    {
      "mesh": 17,
      "name": "pSphere17_lambert1_0"
    },
    {
      "children": [
        43
      ],
      "name": "pSphere18"
    },
    {
      "mesh": 18,
      "name": "pSphere18_lambert1_0"
    },
    {
      "children": [
        45
      ],
      "name": "pSphere19"
    },
    {
      "mesh": 19,
      "name": "pSphere19_lambert1_0"
    },
    {
      "children": [
        47
      ],
      "name": "pSphere20"
    },
    {
      "mesh": 20,
      "name": "pSphere20_lambert1_0"
    },
    {
      "children": [
        49
      ],
      "name": "pSphere21"
    },
    {
      "mesh": 21,
      "name": "pSphere21_lambert1_0"
    },
    {
      "children": [
        51
      ],
      "name": "pSphere22"
    },
    {
      "mesh": 22,
      "name": "pSphere22_lambert1_0"
    },
    {
      "children": [
        53
      ],
      "name": "pSphere23"
    },
    {
      "mesh": 23,
      "name": "pSphere23_lambert1_0"
    },
    {
      "children": [
        55
      ],
      "name": "pCube10"
    },
    {
      "mesh": 24,
      "name": "pCube10_lambert1_0"
    },
    {
      "children": [
        57
      ],
      "name": "pSphere24"
    },
    {
      "mesh": 25,
      "name": "pSphere24_lambert1_0"
    },
    {
      "children": [
        59
      ],
      "name": "pSphere25"
    },
    {
      "mesh": 26,
      "name": "pSphere25_lambert1_0"
    }
  ],
  "samplers": [
    {
      "magFilter": 9729,
      "minFilter": 9987,
      "wrapS": 10497,
      "wrapT": 10497
    }
  ],
  "scene": 0,
  "scenes": [
    {
      "name": "Sketchfab_Scene",
      "nodes": [
        0
      ]
    }
  ],
  "textures": [
    {
      "sampler": 0,
      "source": 0
    },
    {
      "sampler": 0,
      "source": 1
    },
    {
      "sampler": 0,
      "source": 2
    },
    {
      "sampler": 0,
      "source": 3
    },
    {
      "sampler": 0,
      "source": 4
    }
  ]
}
