{
  "accessors": [
    {
      "bufferView": 2,
      "componentType": 5126,
      "count": 8529,
      "max": [
        3.1106338500976563,
        3.02640438079834,
        11.192911148071289
      ],
      "min": [
        -115.42523193359375,
        -20.39223861694336,
        -1.0
      ],
      "type": "VEC3"
    },
    {
      "bufferView": 2,
      "byteOffset": 102348,
      "componentType": 5126,
      "count": 8529,
      "max": [
        1.0,
        1.0,
        1.0
      ],
      "min": [
        -1.0,
        -1.0,
        -1.0
      ],
      "type": "VEC3"
    },
    {
      "bufferView": 3,
      "componentType": 5126,
      "count": 8529,
      "max": [
        0.99974524974823,
        1.0,
        1.0,
        1.0
      ],
      "min": [
        -1.0,
        -1.0,
        -1.0,
        -1.0
      ],
      "type": "VEC4"
    },
    {
      "bufferView": 1,
      "componentType": 5126,
      "count": 8529,
      "max": [
        0.9866508841514587,
        0.9946634769439697
      ],
      "min": [
        0.005336377769708633,
        0.005336332134902477
      ],
      "type": "VEC2"
    },
    {
      "bufferView": 1,
      "byteOffset": 68232,
      "componentType": 5126,
      "count": 8529,
      "max": [
        0.9866508841514587,
        0.9946634769439697
      ],
      "min": [
        0.005336377769708633,
        0.005336332134902477
      ],
      "type": "VEC2"
    },
    {
      "bufferView": 1,
      "byteOffset": 136464,
      "componentType": 5126,
      "count": 8529,
      "max": [
        0.9866508841514587,
        0.9946634769439697
      ],
      "min": [
        0.005336377769708633,
        0.005336332134902477
      ],
      "type": "VEC2"
    },
    {
      "bufferView": 0,
      "componentType": 5125,
      "count": 40794,
      "type": "SCALAR"
    }
  ],
  "asset": {
    "extras": {
      "author": "haroonimtiaz35 (https://sketchfab.com/haroonimtiaz35)",
      "license": "CC-BY-4.0 (http://creativecommons.org/licenses/by/4.0/)",
      "source": "https://sketchfab.com/3d-models/distressed-horror-sofa-62113daac6b148a7a28d2fa055fbd403",
      "title": "Distressed Horror Sofa"
    },
    "generator": "Sketchfab-17.15.0",
    "version": "2.0"
  },
  "bufferViews": [
    {
      "buffer": 0,
      "byteLength": 163176,
      "name": "floatBufferViews",
      "target": 34963
    },
    {
      "buffer": 0,
      "byteLength": 204696,
      "byteOffset": 163176,
      "byteStride": 8,
      "name": "floatBufferViews",
      "target": 34962
    },
    {
      "buffer": 0,
      "byteLength": 204696,
      "byteOffset": 367872,
      "byteStride": 12,
      "name": "floatBufferViews",
      "target": 34962
    },
    {
      "buffer": 0,
      "byteLength": 136464,
      "byteOffset": 572568,
      "byteStride": 16,
      "name": "floatBufferViews",
      "target": 34962
    }
  ],
  "buffers": [
    {
      "byteLength": 709032,
      "uri": "scene.bin"
    }
  ],
  "extensionsUsed": [
    "KHR_texture_transform",
    "KHR_materials_specular"
  ],
  "images": [
    {
      "uri": "textures/Sofa_Baked_baseColor.png"
    },
    {
      "uri": "textures/Sofa_Baked_metallicRoughness.png"
    },
    {
      "uri": "textures/Sofa_Baked_normal.png"
    }
  ],
  "materials": [
    {
      "doubleSided": true,
      "extensions": {
        "KHR_materials_specular": {
          "specularColorFactor": [
            1.0,
            1.0,
            1.0
          ],
          "specularFactor": 0.0
        }
      },
      "name": "Sofa_Baked",
      "normalTexture": {
        "extensions": {
          "KHR_texture_transform": {
            "scale": [
              1.0039134370976464,
              1
            ]
          }
        },
        "index": 2
      },
      "pbrMetallicRoughness": {
        "baseColorTexture": {
          "index": 0
        },
        "metallicFactor": 0.0,
        "metallicRoughnessTexture": {
          "index": 1
        }
      }
    }
  ],
  "meshes": [
    {
      "name": "Cube.004_Sofa Baked_0",
      "primitives": [
        {
          "attributes": {
            "NORMAL": 1,
            "POSITION": 0,
            "TANGENT": 2,
            "TEXCOORD_0": 3,
            "TEXCOORD_1": 4,
            "TEXCOORD_2": 5
          },
          "indices": 6,
          "material": 0,
          "mode": 4
        }
      ]
    }
  ],
  "nodes": [
    {
      "children": [
        1
      ],
      "matrix": [
        1.0,
        0.0,
        0.0,
        0.0,
        0.0,
        2.220446049250313e-16,
        -1.0,
        0.0,
        0.0,
        1.0,
        2.220446049250313e-16,
        0.0,
        0.0,
        0.0,
        0.0,
        1.0
      ],
      "name": "Sketchfab_model"
    },
    {
      "children": [
        2
      ],
      "matrix": [
        0.009999999776482582,
        0.0,
        0.0,
        0.0,
        0.0,
        0.0,
        0.009999999776482582,
        0.0,
        0.0,
        -0.009999999776482582,
        0.0,
        0.0,
        0.0,
        0.0,
        0.0,
        1.0
      ],
      "name": "Sofa Model.fbx"
    },
    {
      "children": [
        3
      ],
      "name": "RootNode"
    },
    {
      "children": [
        4
      ],
      "matrix": [
        -3.50736665725708,
        -0.0,
        -0.0,
        -0.0,
        -0.0,
        1.4362596090798685e-06,
        -8.81569862365711,
        -0.0,
        -0.0,
        15.054553985595504,
        2.4526981632742553e-06,
        -0.0,
        -478.5050354003906,
        15.433600425720215,
        -91.50182342529297,
        1.0
      ],
      "name": "Cube.004"
    },
    {
      "mesh": 0,
      "name": "Cube.004_Sofa Baked_0"
    }
  ],
  "samplers": [
    {
      "magFilter": 9729,
      "minFilter": 9987,
      "wrapS": 10497,
      "wrapT": 10497
    }
  ],
  "scene": 0,
  "scenes": [
    {
      "name": "Sketchfab_Scene",
      "nodes": [
        0
      ]
    }
  ],
  "textures": [
    {
      "sampler": 0,
      "source": 0
    },
    {
      "sampler": 0,
      "source": 1
    },
    {
      "sampler": 0,
      "source": 2
    }
  ]
}
