{
  "accessors": [
    {
      "bufferView": 2,
      "componentType": 5126,
      "count": 551,
      "max": [
        -12.389179229736328,
        53.5103874206543,
        234.82254028320313
      ],
      "min": [
        -345.0920715332031,
        -117.25080871582031,
        14.61179256439209
      ],
      "type": "VEC3"
    },
    {
      "bufferView": 2,
      "byteOffset": 6612,
      "componentType": 5126,
      "count": 551,
      "max": [
        0.9864873886108398,
        0.9986895322799683,
        0.9943474531173706
      ],
      "min": [
        -0.9999496936798096,
        -0.9985718131065369,
        -0.997663140296936
      ],
      "type": "VEC3"
    },
    {
      "bufferView": 3,
      "componentType": 5126,
      "count": 551,
      "max": [
        0.9942092299461365,
        0.9936422109603882,
        0.9998595118522644,
        1.0
      ],
      "min": [
        -0.9732325077056885,
        -0.9967723488807678,
        -0.986916184425354,
        1.0
      ],
      "type": "VEC4"
    },
    {
      "bufferView": 1,
      "componentType": 5126,
      "count": 551,
      "max": [
        0.9975749254226685,
        0.9892256259918213
      ],
      "min": [
        0.3728320300579071,
        0.003945312462747097
      ],
      "type": "VEC2"
    },
    {
      "bufferView": 0,
      "componentType": 5125,
      "count": 2370,
      "type": "SCALAR"
    },
    {
      "bufferView": 2,
      "byteOffset": 13224,
      "componentType": 5126,
      "count": 7569,
      "max": [
        517.3394775390625,
        1627.5787353515625,
        65.68412780761719
      ],
      "min": [
        -517.3394775390625,
        -360.6370544433594,
        -16.469608306884766
      ],
      "type": "VEC3"
    },
    {
      "bufferView": 2,
      "byteOffset": 104052,
      "componentType": 5126,
      "count": 7569,
      "max": [
        0.9999988079071045,
        0.999977707862854,
        1.0
      ],
      "min": [
        -0.9999988079071045,
        -0.9999507665634155,
        -0.9982454180717468
      ],
      "type": "VEC3"
    },
    {
      "bufferView": 3,
      "byteOffset": 8816,
      "componentType": 5126,
      "count": 7569,
      "max": [
        1.0,
        0.999860942363739,
        0.99931401014328,
        1.0
      ],
      "min": [
        -1.0,
        -0.9999637007713318,
        -0.9994737505912781,
        -1.0
      ],
      "type": "VEC4"
    },
    {
      "bufferView": 1,
      "byteOffset": 4408,
      "componentType": 5126,
      "count": 7569,
      "max": [
        0.9976618885993958,
        0.9983739852905273
      ],
      "min": [
        0.003584499005228281,
        0.003726459573954344
      ],
      "type": "VEC2"
    },
    {
      "bufferView": 0,
      "byteOffset": 9480,
      "componentType": 5125,
      "count": 26163,
      "type": "SCALAR"
    },
    {
      "bufferView": 2,
      "byteOffset": 194880,
      "componentType": 5126,
      "count": 530,
      "max": [
        14.800856590270996,
        53.55854034423828,
        433.03118896484375
      ],
      "min": [
        -14.93230152130127,
        -117.70166015625,
        12.224583625793457
      ],
      "type": "VEC3"
    },
    {
      "bufferView": 2,
      "byteOffset": 201240,
      "componentType": 5126,
      "count": 530,
      "max": [
        0.9998349547386169,
        0.9956213235855103,
        0.9949406981468201
      ],
      "min": [
        -0.9996519088745117,
        -0.9975050687789917,
        -0.9950571060180664
      ],
      "type": "VEC3"
    },
    {
      "bufferView": 3,
      "byteOffset": 129920,
      "componentType": 5126,
      "count": 530,
      "max": [
        0.9999599456787109,
        0.9990200400352478,
        0.9949358701705933,
        1.0
      ],
      "min": [
        -0.9998323917388916,
        -0.9968869686126709,
        -0.9986713528633118,
        1.0
      ],
      "type": "VEC4"
    },
    {
      "bufferView": 1,
      "byteOffset": 64960,
      "componentType": 5126,
      "count": 530,
      "max": [
        0.9972476363182068,
        0.9916451573371887
      ],
      "min": [
        0.003945312462747097,
        0.17838667333126068
      ],
      "type": "VEC2"
    },
    {
      "bufferView": 0,
      "byteOffset": 114132,
      "componentType": 5125,
      "count": 2190,
      "type": "SCALAR"
    },
    {
      "bufferView": 2,
      "byteOffset": 207600,
      "componentType": 5126,
      "count": 166,
      "max": [
        35.54811477661133,
        224.48226928710938,
        20.07716941833496
      ],
      "min": [
        -35.54811477661133,
        0.0,
        -20.07716941833496
      ],
      "type": "VEC3"
    },
    {
      "bufferView": 2,
      "byteOffset": 209592,
      "componentType": 5126,
      "count": 166,
      "max": [
        0.9993283748626709,
        0.9977236390113831,
        0.9991585612297058
      ],
      "min": [
        -0.9961155652999878,
        -0.9631001949310303,
        -0.9996638894081116
      ],
      "type": "VEC3"
    },
    {
      "bufferView": 3,
      "byteOffset": 138400,
      "componentType": 5126,
      "count": 166,
      "max": [
        0.9947476387023926,
        0.9640645980834961,
        0.9996809959411621,
        1.0
      ],
      "min": [
        -0.99104905128479,
        -0.9934858679771423,
        -0.9999713897705078,
        1.0
      ],
      "type": "VEC4"
    },
    {
      "bufferView": 1,
      "byteOffset": 69200,
      "componentType": 5126,
      "count": 166,
      "max": [
        0.9957480430603027,
        0.9781466722488403
      ],
      "min": [
        0.00390625,
        0.00390625
      ],
      "type": "VEC2"
    },
    {
      "bufferView": 0,
      "byteOffset": 122892,
      "componentType": 5125,
      "count": 528,
      "type": "SCALAR"
    },
    {
      "bufferView": 2,
      "byteOffset": 211584,
      "componentType": 5126,
      "count": 521,
      "max": [
        53.15250015258789,
        67.75851440429688,
        53.15250015258789
      ],
      "min": [
        -53.15250015258789,
        -67.07707977294922,
        -53.15250015258789
      ],
      "type": "VEC3"
    },
    {
      "bufferView": 2,
      "byteOffset": 217836,
      "componentType": 5126,
      "count": 521,
      "max": [
        0.9971331357955933,
        1.0,
        0.9993553757667542
      ],
      "min": [
        -0.9974555969238281,
        -0.999230146408081,
        -0.9993553757667542
      ],
      "type": "VEC3"
    },
    {
      "bufferView": 3,
      "byteOffset": 141056,
      "componentType": 5126,
      "count": 521,
      "max": [
        1.0,
        0.9975522756576538,
        0.9999995827674866,
        1.0
      ],
      "min": [
        -0.999902069568634,
        -0.990935742855072,
        -0.9999996423721313,
        1.0
      ],
      "type": "VEC4"
    },
    {
      "bufferView": 1,
      "byteOffset": 70528,
      "componentType": 5126,
      "count": 521,
      "max": [
        0.654934823513031,
        0.9724921584129333
      ],
      "min": [
        0.12230468541383743,
        0.7412395477294922
      ],
      "type": "VEC2"
    },
    {
      "bufferView": 0,
      "byteOffset": 125004,
      "componentType": 5125,
      "count": 2130,
      "type": "SCALAR"
    },
    {
      "bufferView": 2,
      "byteOffset": 224088,
      "componentType": 5126,
      "count": 159,
      "max": [
        24.613840103149414,
        162.57240295410156,
        25.23715591430664
      ],
      "min": [
        -24.613840103149414,
        0.0,
        -25.23715591430664
      ],
      "type": "VEC3"
    },
    {
      "bufferView": 2,
      "byteOffset": 225996,
      "componentType": 5126,
      "count": 159,
      "max": [
        0.9990607500076294,
        0.9999343752861023,
        0.9998433589935303
      ],
      "min": [
        -0.9982486963272095,
        -0.9988332390785217,
        -1.0
      ],
      "type": "VEC3"
    },
    {
      "bufferView": 3,
      "byteOffset": 149392,
      "componentType": 5126,
      "count": 159,
      "max": [
        0.9998083710670471,
        0.5209269523620605,
        0.9975753426551819,
        1.0
      ],
      "min": [
        -1.0,
        -0.6503182649612427,
        -0.999921441078186,
        1.0
      ],
      "type": "VEC4"
    },
    {
      "bufferView": 1,
      "byteOffset": 74696,
      "componentType": 5126,
      "count": 159,
      "max": [
        0.9175821542739868,
        0.9780337810516357
      ],
      "min": [
        0.2292187511920929,
        0.00390625
      ],
      "type": "VEC2"
    },
    {
      "bufferView": 0,
      "byteOffset": 133524,
      "componentType": 5125,
      "count": 696,
      "type": "SCALAR"
    },
    {
      "bufferView": 2,
      "byteOffset": 227904,
      "componentType": 5126,
      "count": 159,
      "max": [
        24.613840103149414,
        137.47239685058594,
        25.23715591430664
      ],
      "min": [
        -24.86284065246582,
        0.0,
        -25.23715591430664
      ],
      "type": "VEC3"
    },
    {
      "bufferView": 2,
      "byteOffset": 229812,
      "componentType": 5126,
      "count": 159,
      "max": [
        0.9990607500076294,
        0.9999343752861023,
        0.9998433589935303
      ],
      "min": [
        -0.9999778270721436,
        -0.9988332390785217,
        -1.0
      ],
      "type": "VEC3"
    },
    {
      "bufferView": 3,
      "byteOffset": 151936,
      "componentType": 5126,
      "count": 159,
      "max": [
        0.9998083114624023,
        0.5209197998046875,
        0.999887228012085,
        1.0
      ],
      "min": [
        -1.0,
        -0.6503190398216248,
        -0.999921441078186,
        1.0
      ],
      "type": "VEC4"
    },
    {
      "bufferView": 1,
      "byteOffset": 75968,
      "componentType": 5126,
      "count": 159,
      "max": [
        0.954582154750824,
        0.9780337810516357
      ],
      "min": [
        0.13671875,
        0.025419719517230988
      ],
      "type": "VEC2"
    },
    {
      "bufferView": 0,
      "byteOffset": 136308,
      "componentType": 5125,
      "count": 708,
      "type": "SCALAR"
    },
    {
      "bufferView": 2,
      "byteOffset": 231720,
      "componentType": 5126,
      "count": 521,
      "max": [
        53.15250015258789,
        67.75851440429688,
        53.15250015258789
      ],
      "min": [
        -53.15250015258789,
        -67.07707977294922,
        -53.15250015258789
      ],
      "type": "VEC3"
    },
    {
      "bufferView": 2,
      "byteOffset": 237972,
      "componentType": 5126,
      "count": 521,
      "max": [
        0.9974555969238281,
        1.0,
        0.9993553757667542
      ],
      "min": [
        -0.9971331357955933,
        -0.999230146408081,
        -0.9993553757667542
      ],
      "type": "VEC3"
    },
    {
      "bufferView": 3,
      "byteOffset": 154480,
      "componentType": 5126,
      "count": 521,
      "max": [
        0.999902069568634,
        0.9975522756576538,
        0.9999995827674866,
        -1.0
      ],
      "min": [
        -1.0,
        -0.990935742855072,
        -0.9999996423721313,
        -1.0
      ],
      "type": "VEC4"
    },
    {
      "bufferView": 1,
      "byteOffset": 77240,
      "componentType": 5126,
      "count": 521,
      "max": [
        0.654934823513031,
        0.9724921584129333
      ],
      "min": [
        0.12230468541383743,
        0.7412395477294922
      ],
      "type": "VEC2"
    },
    {
      "bufferView": 0,
      "byteOffset": 139140,
      "componentType": 5125,
      "count": 2130,
      "type": "SCALAR"
    },
    {
      "bufferView": 2,
      "byteOffset": 244224,
      "componentType": 5126,
      "count": 551,
      "max": [
        345.0920715332031,
        53.5103874206543,
        234.82254028320313
      ],
      "min": [
        12.389179229736328,
        -117.25080871582031,
        14.61179256439209
      ],
      "type": "VEC3"
    },
    {
      "bufferView": 2,
      "byteOffset": 250836,
      "componentType": 5126,
      "count": 551,
      "max": [
        0.9999496936798096,
        0.9986895322799683,
        0.9943474531173706
      ],
      "min": [
        -0.9864873886108398,
        -0.9985718131065369,
        -0.997663140296936
      ],
      "type": "VEC3"
    },
    {
      "bufferView": 3,
      "byteOffset": 162816,
      "componentType": 5126,
      "count": 551,
      "max": [
        0.9934011697769165,
        0.9935569763183594,
        0.999856173992157,
        1.0
      ],
      "min": [
        -0.9727088809013367,
        -0.9928594827651978,
        -0.9878560304641724,
        -1.0
      ],
      "type": "VEC4"
    },
    {
      "bufferView": 1,
      "byteOffset": 81408,
      "componentType": 5126,
      "count": 551,
      "max": [
        0.9975749254226685,
        0.9892256259918213
      ],
      "min": [
        0.3728320300579071,
        0.003945312462747097
      ],
      "type": "VEC2"
    },
    {
      "bufferView": 0,
      "byteOffset": 147660,
      "componentType": 5125,
      "count": 2370,
      "type": "SCALAR"
    },
    {
      "bufferView": 2,
      "byteOffset": 257448,
      "componentType": 5126,
      "count": 4,
      "max": [
        2171.8125,
        2871.8125,
        -16.469608306884766
      ],
      "min": [
        -2171.8125,
        -1471.8125,
        -16.469608306884766
      ],
      "type": "VEC3"
    },
    {
      "bufferView": 2,
      "byteOffset": 257496,
      "componentType": 5126,
      "count": 4,
      "max": [
        0.0,
        0.0,
        1.0
      ],
      "min": [
        0.0,
        0.0,
        1.0
      ],
      "type": "VEC3"
    },
    {
      "bufferView": 3,
      "byteOffset": 171632,
      "componentType": 5126,
      "count": 4,
      "max": [
        0.0,
        -1.0,
        0.0,
        1.0
      ],
      "min": [
        0.0,
        -1.0,
        0.0,
        1.0
      ],
      "type": "VEC4"
    },
    {
      "bufferView": 1,
      "byteOffset": 85816,
      "componentType": 5126,
      "count": 4,
      "max": [
        1.0,
        1.0
      ],
      "min": [
        0.0,
        0.0
      ],
      "type": "VEC2"
    },
    {
      "bufferView": 0,
      "byteOffset": 157140,
      "componentType": 5125,
      "count": 6,
      "type": "SCALAR"
    },
    {
      "bufferView": 2,
      "byteOffset": 257544,
      "componentType": 5126,
      "count": 521,
      "max": [
        53.15250015258789,
        67.75851440429688,
        53.15250015258789
      ],
      "min": [
        -53.15250015258789,
        -67.07707977294922,
        -53.15250015258789
      ],
      "type": "VEC3"
    },
    {
      "bufferView": 2,
      "byteOffset": 263796,
      "componentType": 5126,
      "count": 521,
      "max": [
        0.9971331357955933,
        1.0,
        0.9993553757667542
      ],
      "min": [
        -0.9974555969238281,
        -0.999230146408081,
        -0.9993553757667542
      ],
      "type": "VEC3"
    },
    {
      "bufferView": 3,
      "byteOffset": 171696,
      "componentType": 5126,
      "count": 521,
      "max": [
        1.0,
        0.9975522756576538,
        0.9999995827674866,
        1.0
      ],
      "min": [
        -0.999902069568634,
        -0.990935742855072,
        -0.9999996423721313,
        1.0
      ],
      "type": "VEC4"
    },
    {
      "bufferView": 1,
      "byteOffset": 85848,
      "componentType": 5126,
      "count": 521,
      "max": [
        0.654934823513031,
        0.9724921584129333
      ],
      "min": [
        0.12230468541383743,
        0.7412395477294922
      ],
      "type": "VEC2"
    },
    {
      "bufferView": 0,
      "byteOffset": 157164,
      "componentType": 5125,
      "count": 2130,
      "type": "SCALAR"
    }
  ],
  "asset": {
    "extras": {
      "author": "EugeneTheSage (https://sketchfab.com/EugeneTheSage)",
      "license": "CC-BY-4.0 (http://creativecommons.org/licenses/by/4.0/)",
      "source": "https://sketchfab.com/3d-models/ornate-victorian-mirror-f801e338382a479d845382b145ce7476",
      "title": "Ornate Victorian Mirror"
    },
    "generator": "Sketchfab-15.30.0",
    "version": "2.0"
  },
  "bufferViews": [
    {
      "buffer": 0,
      "byteLength": 165684,
      "name": "floatBufferViews",
      "target": 34963
    },
    {
      "buffer": 0,
      "byteLength": 90016,
      "byteOffset": 165684,
      "byteStride": 8,
      "name": "floatBufferViews",
      "target": 34962
    },
    {
      "buffer": 0,
      "byteLength": 270048,
      "byteOffset": 255700,
      "byteStride": 12,
      "name": "floatBufferViews",
      "target": 34962
    },
    {
      "buffer": 0,
      "byteLength": 180032,
      "byteOffset": 525748,
      "byteStride": 16,
      "name": "floatBufferViews",
      "target": 34962
    }
  ],
  "buffers": [
    {
      "byteLength": 705780,
      "uri": "scene.bin"
    }
  ],
  "extensionsUsed": [
    "KHR_texture_transform"
  ],
  "images": [
    {
      "uri": "textures/default_baseColor.png"
    },
    {
      "uri": "textures/default_metallicRoughness.png"
    },
    {
      "uri": "textures/default_normal.png"
    },
    {
      "uri": "textures/candles_baseColor.png"
    },
    {
      "uri": "textures/candles_metallicRoughness.png"
    },
    {
      "uri": "textures/candles_normal.png"
    },
    {
      "uri": "textures/wall_baseColor.png"
    },
    {
      "uri": "textures/wall_metallicRoughness.png"
    },
    {
      "uri": "textures/wall_normal.png"
    }
  ],
  "materials": [
    {
      "doubleSided": true,
      "name": "default",
      "normalTexture": {
        "index": 2
      },
      "pbrMetallicRoughness": {
        "baseColorTexture": {
          "index": 0
        },
        "metallicRoughnessTexture": {
          "index": 1
        }
      }
    },
    {
      "doubleSided": true,
      "name": "candles",
      "normalTexture": {
        "index": 5
      },
      "pbrMetallicRoughness": {
        "baseColorTexture": {
          "index": 3
        },
        "metallicRoughnessTexture": {
          "index": 4
        }
      }
    },
    {
      "alphaMode": "BLEND",
      "doubleSided": true,
      "name": "wall",
      "normalTexture": {
        "extensions": {
          "KHR_texture_transform": {
            "rotation": 1.5707963267948966,
            "scale": [
              5,
              5
            ]
          }
        },
        "index": 8
      },
      "pbrMetallicRoughness": {
        "baseColorTexture": {
          "extensions": {
            "KHR_texture_transform": {
              "rotation": 1.5707963267948966,
              "scale": [
                5,
                5
              ]
            }
          },
          "index": 6
        },
        "metallicRoughnessTexture": {
          "extensions": {
            "KHR_texture_transform": {
              "rotation": 1.5707963267948966,
              "scale": [
                5,
                5
              ]
            }
          },
          "index": 7
        }
      }
    }
  ],
  "meshes": [
    {
      "name": "candleStickSide_low_default_0",
      "primitives": [
        {
          "attributes": {
            "NORMAL": 1,
            "POSITION": 0,
            "TANGENT": 2,
            "TEXCOORD_0": 3
          },
          "indices": 4,
          "material": 0,
          "mode": 4
        }
      ]
    },
    {
      "name": "MirrorFrame_low_default_0",
      "primitives": [
        {
          "attributes": {
            "NORMAL": 6,
            "POSITION": 5,
            "TANGENT": 7,
            "TEXCOORD_0": 8
          },
          "indices": 9,
          "material": 0,
          "mode": 4
        }
      ]
    },
    {
      "name": "candleStickCenter_low_default_0",
      "primitives": [
        {
          "attributes": {
            "NORMAL": 11,
            "POSITION": 10,
            "TANGENT": 12,
            "TEXCOORD_0": 13
          },
          "indices": 14,
          "material": 0,
          "mode": 4
        }
      ]
    },
    {
      "name": "Candle2_low_candles_0",
      "primitives": [
        {
          "attributes": {
            "NORMAL": 16,
            "POSITION": 15,
            "TANGENT": 17,
            "TEXCOORD_0": 18
          },
          "indices": 19,
          "material": 1,
          "mode": 4
        }
      ]
    },
    {
      "name": "candleStickSocket_low_default_0",
      "primitives": [
        {
          "attributes": {
            "NORMAL": 21,
            "POSITION": 20,
            "TANGENT": 22,
            "TEXCOORD_0": 23
          },
          "indices": 24,
          "material": 0,
          "mode": 4
        }
      ]
    },
    {
      "name": "Candle1_low_candles_0",
      "primitives": [
        {
          "attributes": {
            "NORMAL": 26,
            "POSITION": 25,
            "TANGENT": 27,
            "TEXCOORD_0": 28
          },
          "indices": 29,
          "material": 1,
          "mode": 4
        }
      ]
    },
    {
      "name": "Candle3_low_candles_0",
      "primitives": [
        {
          "attributes": {
            "NORMAL": 31,
            "POSITION": 30,
            "TANGENT": 32,
            "TEXCOORD_0": 33
          },
          "indices": 34,
          "material": 1,
          "mode": 4
        }
      ]
    },
    {
      "name": "candleStickSocket_low_2_default_0",
      "primitives": [
        {
          "attributes": {
            "NORMAL": 36,
            "POSITION": 35,
            "TANGENT": 37,
            "TEXCOORD_0": 38
          },
          "indices": 39,
          "material": 0,
          "mode": 4
        }
      ]
    },
    {
      "name": "candleStickSide_low_2_default_0",
      "primitives": [
        {
          "attributes": {
            "NORMAL": 41,
            "POSITION": 40,
            "TANGENT": 42,
            "TEXCOORD_0": 43
          },
          "indices": 44,
          "material": 0,
          "mode": 4
        }
      ]
    },
    {
      "name": "wall_wall_0",
      "primitives": [
        {
          "attributes": {
            "NORMAL": 46,
            "POSITION": 45,
            "TANGENT": 47,
            "TEXCOORD_0": 48
          },
          "indices": 49,
          "material": 2,
          "mode": 4
        }
      ]
    },
    {
      "name": "candleStickSocket_low_3_default_0",
      "primitives": [
        {
          "attributes": {
            "NORMAL": 51,
            "POSITION": 50,
            "TANGENT": 52,
            "TEXCOORD_0": 53
          },
          "indices": 54,
          "material": 0,
          "mode": 4
        }
      ]
    }
  ],
  "nodes": [
    {
      "children": [
        1
      ],
      "matrix": [
        1.0,
        0.0,
        0.0,
        0.0,
        0.0,
        2.220446049250313e-16,
        -1.0,
        0.0,
        0.0,
        1.0,
        2.220446049250313e-16,
        0.0,
        0.0,
        0.0,
        0.0,
        1.0
      ],
      "name": "Sketchfab_model"
    },
    {
      "children": [
        2
      ],
      "matrix": [
        0.009999999776482582,
        0.0,
        0.0,
        0.0,
        0.0,
        0.0,
        0.009999999776482582,
        0.0,
        0.0,
        -0.009999999776482582,
        0.0,
        0.0,
        0.0,
        0.0,
        0.0,
        1.0
      ],
      "name": "78d7c31863ef43ff82f0be1800908ab0.fbx"
    },
    {
      "children": [
        3,
        5,
        7,
        9,
        11,
        13,
        15,
        17,
        19,
        21,
        23
      ],
      "name": "RootNode"
    },
    {
      "children": [
        4
      ],
      "name": "candleStickSide_low"
    },
    {
      "mesh": 0,
      "name": "candleStickSide_low_default_0"
    },
    {
      "children": [
        6
      ],
      "name": "MirrorFrame_low"
    },
    {
      "mesh": 1,
      "name": "MirrorFrame_low_default_0"
    },
    {
      "children": [
        8
      ],
      "name": "candleStickCenter_low"
    },
    {
      "mesh": 2,
      "name": "candleStickCenter_low_default_0"
    },
    {
      "children": [
        10
      ],
      "matrix": [
        1.0,
        0.0,
        0.0,
        0.0,
        0.0,
        1.0,
        0.0,
        0.0,
        0.0,
        0.0,
        1.0,
        0.0,
        -312.4467468261719,
        103.4901123046875,
        225.64187622070313,
        1.0
      ],
      "name": "Candle2_low"
    },
    {
      "mesh": 3,
      "name": "Candle2_low_candles_0"
    },
    {
      "children": [
        12
      ],
      "matrix": [
        1.0,
        0.0,
        0.0,
        0.0,
        0.0,
        1.0,
        0.0,
        0.0,
        0.0,
        0.0,
        1.0,
        0.0,
        -0.19999994337558746,
        102.49141693115234,
        413.6000061035156,
        1.0
      ],
      "name": "candleStickSocket_low"
    },
    {
      "mesh": 4,
      "name": "candleStickSocket_low_default_0"
    },
    {
      "children": [
        14
      ],
      "matrix": [
        1.0,
        0.0,
        0.0,
        0.0,
        0.0,
        1.0,
        0.0,
        0.0,
        0.0,
        0.0,
        1.0,
        0.0,
        0.29579028487205505,
        105.20000457763672,
        413.3108215332031,
        1.0
      ],
      "name": "Candle1_low"
    },
    {
      "mesh": 5,
      "name": "Candle1_low_candles_0"
    },
    {
      "children": [
        16
      ],
      "matrix": [
        -0.7405700367618844,
        9.069367250648792e-17,
        -0.6719791817091523,
        0.0,
        4.017096451735825e-17,
        1.0,
        9.069367250648792e-17,
        0.0,
        0.6719791817091523,
        4.017096451735825e-17,
        -0.7405700367618844,
        0.0,
        327.5,
        104.20000457763672,
        228.0,
        1.0
      ],
      "name": "Candle3_low"
    },
    {
      "mesh": 6,
      "name": "Candle3_low_candles_0"
    },
    {
      "children": [
        18
      ],
      "matrix": [
        1.0,
        0.0,
        0.0,
        0.0,
        0.0,
        1.0,
        0.0,
        0.0,
        0.0,
        0.0,
        1.0,
        0.0,
        328.20001220703125,
        102.49141693115234,
        225.60000610351563,
        1.0
      ],
      "name": "candleStickSocket_low_2"
    },
    {
      "mesh": 7,
      "name": "candleStickSocket_low_2_default_0"
    },
    {
      "children": [
        20
      ],
      "name": "candleStickSide_low_2"
    },
    {
      "mesh": 8,
      "name": "candleStickSide_low_2_default_0"
    },
    {
      "children": [
        22
      ],
      "name": "wall"
    },
    {
      "mesh": 9,
      "name": "wall_wall_0"
    },
    {
      "children": [
        24
      ],
      "matrix": [
        1.0,
        0.0,
        0.0,
        0.0,
        0.0,
        1.0,
        0.0,
        0.0,
        0.0,
        0.0,
        1.0,
        0.0,
        -328.20001220703125,
        102.49141693115234,
        225.60000610351563,
        1.0
      ],
      "name": "candleStickSocket_low_3"
    },
    {
      "mesh": 10,
      "name": "candleStickSocket_low_3_default_0"
    }
  ],
  "samplers": [
    {
      "magFilter": 9729,
      "minFilter": 9987,
      "wrapS": 10497,
      "wrapT": 10497
    }
  ],
  "scene": 0,
  "scenes": [
    {
      "name": "Sketchfab_Scene",
      "nodes": [
        0
      ]
    }
  ],
  "textures": [
    {
      "sampler": 0,
      "source": 0
    },
    {
      "sampler": 0,
      "source": 1
    },
    {
      "sampler": 0,
      "source": 2
    },
    {
      "sampler": 0,
      "source": 3
    },
    {
      "sampler": 0,
      "source": 4
    },
    {
      "sampler": 0,
      "source": 5
    },
    {
      "sampler": 0,
      "source": 6
    },
    {
      "sampler": 0,
      "source": 7
    },
    {
      "sampler": 0,
      "source": 8
    }
  ]
}
