{
  "accessors": [
    {
      "bufferView": 2,
      "componentType": 5126,
      "count": 65532,
      "max": [
        42.78929901123047,
        41.07692337036133,
        19.525978088378906
      ],
      "min": [
        -42.977745056152344,
        -42.0655517578125,
        -8.84948444366455
      ],
      "type": "VEC3"
    },
    {
      "bufferView": 2,
      "byteOffset": 786384,
      "componentType": 5126,
      "count": 65532,
      "max": [
        0.9998098015785217,
        0.9999819397926331,
        0.9999938011169434
      ],
      "min": [
        -0.9999005198478699,
        -0.9999159574508667,
        -0.9987573623657227
      ],
      "type": "VEC3"
    },
    {
      "bufferView": 1,
      "componentType": 5126,
      "count": 65532,
      "max": [
        0.9960799813270569,
        0.9996399879455566
      ],
      "min": [
        0.0,
        0.0
      ],
      "type": "VEC2"
    },
    {
      "bufferView": 0,
      "componentType": 5125,
      "count": 102387,
      "type": "SCALAR"
    },
    {
      "bufferView": 2,
      "byteOffset": 1572768,
      "componentType": 5126,
      "count": 2056,
      "max": [
        42.78929901123047,
        37.543392181396484,
        17.904319763183594
      ],
      "min": [
        -41.24125289916992,
        -31.03179931640625,
        -6.338572978973389
      ],
      "type": "VEC3"
    },
    {
      "bufferView": 2,
      "byteOffset": 1597440,
      "componentType": 5126,
      "count": 2056,
      "max": [
        0.9923236966133118,
        0.9759361743927002,
        0.9998215436935425
      ],
      "min": [
        -0.999825119972229,
        -0.9939266443252563,
        -0.8897651433944702
      ],
      "type": "VEC3"
    },
    {
      "bufferView": 1,
      "byteOffset": 524256,
      "componentType": 5126,
      "count": 2056,
      "max": [
        0.7774199843406677,
        0.9548299908638
      ],
      "min": [
        0.13595999777317047,
        0.04042999818921089
      ],
      "type": "VEC2"
    },
    {
      "bufferView": 0,
      "byteOffset": 409548,
      "componentType": 5125,
      "count": 4602,
      "type": "SCALAR"
    },
    {
      "bufferView": 2,
      "byteOffset": 1622112,
      "componentType": 5126,
      "count": 174,
      "max": [
        42.92774200439453,
        42.61900329589844,
        3.879991054534912
      ],
      "min": [
        -42.31026077270508,
        -42.61900329589844,
        -19.361309051513672
      ],
      "type": "VEC3"
    },
    {
      "bufferView": 2,
      "byteOffset": 1624200,
      "componentType": 5126,
      "count": 174,
      "max": [
        0.8536878824234009,
        0.769625723361969,
        1.0
      ],
      "min": [
        -0.7673969864845276,
        -0.7616621255874634,
        -1.0
      ],
      "type": "VEC3"
    },
    {
      "bufferView": 1,
      "byteOffset": 540704,
      "componentType": 5126,
      "count": 174,
      "max": [
        1.0880000591278076,
        1.0
      ],
      "min": [
        -0.13283999264240265,
        0.0
      ],
      "type": "VEC2"
    },
    {
      "bufferView": 0,
      "byteOffset": 427956,
      "componentType": 5125,
      "count": 468,
      "type": "SCALAR"
    }
  ],
  "asset": {
    "extras": {
      "author": "ediacara (https://sketchfab.com/ediacara)",
      "license": "CC-BY-4.0 (http://creativecommons.org/licenses/by/4.0/)",
      "source": "https://sketchfab.com/3d-models/japanese-food-nimono-345e653b309e4a6095234bc2c173ecf6",
      "title": "japanese food nimono"
    },
    "generator": "Sketchfab-12.68.0",
    "version": "2.0"
  },
  "bufferViews": [
    {
      "buffer": 0,
      "byteLength": 429828,
      "name": "floatBufferViews",
      "target": 34963
    },
    {
      "buffer": 0,
      "byteLength": 542096,
      "byteOffset": 429828,
      "byteStride": 8,
      "name": "floatBufferViews",
      "target": 34962
    },
    {
      "buffer": 0,
      "byteLength": 1626288,
      "byteOffset": 971924,
      "byteStride": 12,
      "name": "floatBufferViews",
      "target": 34962
    }
  ],
  "buffers": [
    {
      "byteLength": 2598212,
      "uri": "scene.bin"
    }
  ],
  "images": [
    {
      "uri": "textures/TextureAtlas_1001_baseColor.png"
    }
  ],
  "materials": [
    {
      "doubleSided": true,
      "name": "TextureAtlas_1001",
      "pbrMetallicRoughness": {
        "baseColorTexture": {
          "index": 0
        },
        "metallicFactor": 0.0
      }
    },
    {
      "doubleSided": true,
      "name": "mat1",
      "pbrMetallicRoughness": {
        "baseColorFactor": [
          0.8,
          0.8,
          0.8,
          1.0
        ],
        "metallicFactor": 0.0
      }
    }
  ],
  "meshes": [
    {
      "name": "Object_0",
      "primitives": [
        {
          "attributes": {
            "NORMAL": 1,
            "POSITION": 0,
            "TEXCOORD_0": 2
          },
          "indices": 3,
          "material": 0,
          "mode": 4
        }
      ]
    },
    {
      "name": "Object_1",
      "primitives": [
        {
          "attributes": {
            "NORMAL": 5,
            "POSITION": 4,
            "TEXCOORD_0": 6
          },
          "indices": 7,
          "material": 0,
          "mode": 4
        }
      ]
    },
    {
      "name": "Object_2",
      "primitives": [
        {
          "attributes": {
            "NORMAL": 9,
            "POSITION": 8,
            "TEXCOORD_0": 10
          },
          "indices": 11,
          "material": 1,
          "mode": 4
        }
      ]
    }
  ],
  "nodes": [
    {
      "children": [
        1
      ],
      "matrix": [
        1.0,
        0.0,
        0.0,
        0.0,
        0.0,
        2.220446049250313e-16,
        -1.0,
        0.0,
        0.0,
        1.0,
        2.220446049250313e-16,
        0.0,
        0.0,
        0.0,
        0.0,
        1.0
      ],
      "name": "Sketchfab_model"
    },
    {
      "children": [
        2,
        3,
        4
      ],
      "name": "daikon.obj.cleaner.materialmerger.gles"
    },
    {
      "mesh": 0,
      "name": "Object_2"
    },
    {
      "mesh": 1,
      "name": "Object_3"
    },
    {
      "mesh": 2,
      "name": "Object_4"
    }
  ],
  "samplers": [
    {
      "magFilter": 9729,
      "minFilter": 9987,
      "wrapS": 10497,
      "wrapT": 10497
    }
  ],
  "scene": 0,
  "scenes": [
    {
      "name": "Sketchfab_Scene",
      "nodes": [
        0
      ]
    }
  ],
  "textures": [
    {
      "sampler": 0,
      "source": 0
    }
  ]
}
